<svg xmlns="http://www.w3.org/2000/svg" width="19.407" height="19.403" viewBox="0 0 19.407 19.403">
  <path id="Icon_awesome-instagram" data-name="Icon awesome-instagram" d="M9.7,6.965a4.975,4.975,0,1,0,4.975,4.975A4.967,4.967,0,0,0,9.7,6.965Zm0,8.209a3.234,3.234,0,1,1,3.234-3.234A3.24,3.24,0,0,1,9.7,15.173Zm6.338-8.412a1.16,1.16,0,1,1-1.16-1.16A1.158,1.158,0,0,1,16.039,6.761Zm3.295,1.178a5.742,5.742,0,0,0-1.567-4.065A5.78,5.78,0,0,0,13.7,2.306c-1.6-.091-6.4-.091-8.005,0A5.772,5.772,0,0,0,1.63,3.869,5.761,5.761,0,0,0,.063,7.934c-.091,1.6-.091,6.4,0,8.005A5.742,5.742,0,0,0,1.63,20.005,5.787,5.787,0,0,0,5.7,21.573c1.6.091,6.4.091,8.005,0a5.742,5.742,0,0,0,4.065-1.567,5.78,5.78,0,0,0,1.567-4.065c.091-1.6.091-6.4,0-8Zm-2.07,9.72A3.274,3.274,0,0,1,15.42,19.5c-1.277.507-4.308.39-5.719.39s-4.446.113-5.719-.39a3.274,3.274,0,0,1-1.844-1.844c-.507-1.277-.39-4.308-.39-5.719s-.113-4.446.39-5.719A3.274,3.274,0,0,1,3.981,4.375c1.277-.507,4.308-.39,5.719-.39s4.446-.113,5.719.39A3.274,3.274,0,0,1,17.264,6.22c.507,1.277.39,4.308.39,5.719S17.771,16.386,17.264,17.659Z" transform="translate(0.005 -2.238)" fill="#fff"/>
</svg>
