<svg xmlns="http://www.w3.org/2000/svg" width="18.805" height="18.805" viewBox="0 0 18.805 18.805">
  <path id="Icon_awesome-linkedin-in" data-name="Icon awesome-linkedin-in" d="M4.209,18.805H.311V6.25h3.9ZM2.258,4.538A2.269,2.269,0,1,1,4.516,2.259,2.277,2.277,0,0,1,2.258,4.538ZM18.8,18.805H14.91V12.694c0-1.457-.029-3.324-2.027-3.324-2.027,0-2.338,1.582-2.338,3.22v6.217H6.651V6.25h3.739V7.963h.055a4.1,4.1,0,0,1,3.689-2.027c3.946,0,4.671,2.6,4.671,5.973v6.9Z" transform="translate(0 0)" fill="#fff"/>
</svg>
