<svg xmlns="http://www.w3.org/2000/svg" width="23.844" height="19.403" viewBox="0 0 23.844 19.403">
  <path id="Icon_ionic-logo-twitter" data-name="Icon ionic-logo-twitter" d="M25.258,6.8a9.89,9.89,0,0,1-2.809.773A4.909,4.909,0,0,0,24.6,4.864a9.72,9.72,0,0,1-3.107,1.187A4.891,4.891,0,0,0,13.03,9.4a4.789,4.789,0,0,0,.126,1.117A13.864,13.864,0,0,1,3.071,5.394a4.9,4.9,0,0,0,1.521,6.538,4.778,4.778,0,0,1-2.223-.611v.061a4.9,4.9,0,0,0,3.926,4.8,4.924,4.924,0,0,1-1.288.172,4.615,4.615,0,0,1-.92-.091,4.9,4.9,0,0,0,4.573,3.4,9.808,9.808,0,0,1-6.079,2.1,9.916,9.916,0,0,1-1.167-.071A13.674,13.674,0,0,0,8.9,23.9,13.836,13.836,0,0,0,22.832,9.967c0-.212-.005-.424-.015-.632A9.958,9.958,0,0,0,25.258,6.8Z" transform="translate(-1.413 -4.5)" fill="#fff"/>
</svg>
