<svg xmlns="http://www.w3.org/2000/svg" width="27.595" height="19.403" viewBox="0 0 27.595 19.403">
  <path id="Icon_awesome-youtube" data-name="Icon awesome-youtube" d="M28.068,7.536a3.467,3.467,0,0,0-2.44-2.455C23.477,4.5,14.847,4.5,14.847,4.5s-8.629,0-10.781.58a3.467,3.467,0,0,0-2.44,2.455,36.374,36.374,0,0,0-.577,6.685,36.374,36.374,0,0,0,.577,6.685,3.416,3.416,0,0,0,2.44,2.416c2.152.58,10.781.58,10.781.58s8.629,0,10.781-.58a3.416,3.416,0,0,0,2.44-2.416,36.373,36.373,0,0,0,.577-6.685,36.373,36.373,0,0,0-.577-6.685ZM12.025,18.324V10.118l7.212,4.1-7.212,4.1Z" transform="translate(-1.05 -4.5)" fill="#fff"/>
</svg>
