<svg id="Icon_feather-arrow-left-circle" data-name="Icon feather-arrow-left-circle" xmlns="http://www.w3.org/2000/svg" width="32" height="32" viewBox="0 0 32 32">
  <g id="Icon_feather-arrow-left-circle-2" data-name="Icon feather-arrow-left-circle" transform="translate(34 34) rotate(180)">
    <path id="Path_19" data-name="Path 19" d="M18,2A16,16,0,0,1,29.314,29.314,16,16,0,0,1,6.686,6.686,15.9,15.9,0,0,1,18,2Zm0,30A14,14,0,0,0,27.9,8.1,14,14,0,1,0,8.1,27.9,13.908,13.908,0,0,0,18,32Z" fill="#8cc04b"/>
    <path id="Path_20" data-name="Path 20" d="M18,25a1,1,0,0,1-.707-.293l-6-6a1,1,0,0,1,0-1.414l6-6a1,1,0,1,1,1.414,1.414L13.414,18l5.293,5.293A1,1,0,0,1,18,25Z" fill="#8cc04b"/>
    <path id="Path_21" data-name="Path 21" d="M24,19H12a1,1,0,0,1,0-2H24a1,1,0,0,1,0,2Z" fill="#8cc04b"/>
  </g>
</svg>
