<svg xmlns="http://www.w3.org/2000/svg" width="27.44" height="21.343" viewBox="0 0 27.44 21.343">
  <path id="Icon_awesome-shopping-basket" data-name="Icon awesome-shopping-basket" d="M27.44,11.016v.762A1.143,1.143,0,0,1,26.3,12.921h-.381l-1.244,8.708a2.287,2.287,0,0,1-2.264,1.963H5.032a2.287,2.287,0,0,1-2.264-1.963L1.524,12.921H1.143A1.143,1.143,0,0,1,0,11.778v-.762A1.143,1.143,0,0,1,1.143,9.872H4.351L9.438,2.878A1.524,1.524,0,0,1,11.9,4.671l-3.783,5.2h11.2l-3.783-5.2A1.524,1.524,0,0,1,18,2.878l5.087,6.995H26.3A1.143,1.143,0,0,1,27.44,11.016ZM14.864,19.4V14.065a1.143,1.143,0,0,0-2.287,0V19.4a1.143,1.143,0,0,0,2.287,0Zm5.336,0V14.065a1.143,1.143,0,1,0-2.287,0V19.4a1.143,1.143,0,1,0,2.287,0Zm-10.671,0V14.065a1.143,1.143,0,0,0-2.287,0V19.4a1.143,1.143,0,0,0,2.287,0Z" transform="translate(0 -2.25)" fill="#3c3c3c"/>
</svg>
