<svg xmlns="http://www.w3.org/2000/svg" width="9.304" height="9.304" viewBox="0 0 9.304 9.304">
  <g id="Group_3232" data-name="Group 3232" transform="translate(-346.573 -22)">
    <g id="Group_3219" data-name="Group 3219" transform="translate(346.573 22)">
      <path id="Path_3759" data-name="Path 3759" d="M11.639,1.012H.506A.508.508,0,0,1,0,.506H0A.508.508,0,0,1,.506,0H11.639a.508.508,0,0,1,.506.506h0A.508.508,0,0,1,11.639,1.012Z" transform="translate(0 8.588) rotate(-45)" fill="#fff"/>
      <path id="Path_4005" data-name="Path 4005" d="M11.639,1.012H.506A.508.508,0,0,1,0,.506H0A.508.508,0,0,1,.506,0H11.639a.508.508,0,0,1,.506.506h0A.508.508,0,0,1,11.639,1.012Z" transform="translate(0.716 0) rotate(45)" fill="#fff"/>
    </g>
  </g>
</svg>
