<svg id="Group_2214" data-name="Group 2214" xmlns="http://www.w3.org/2000/svg" xmlns:xlink="http://www.w3.org/1999/xlink" width="17.538" height="15.782" viewBox="0 0 17.538 15.782">
  <defs>
    <clipPath id="clip-path">
      <rect id="Rectangle_58" data-name="Rectangle 58" width="17.538" height="15.782" fill="#fff"/>
    </clipPath>
  </defs>
  <g id="Group_2214-2" data-name="Group 2214" clip-path="url(#clip-path)">
    <path id="Path_362" data-name="Path 362" d="M0,219.01a.563.563,0,0,1,.6-.357c.416.008.833,0,1.25,0a.8.8,0,0,0,.551-.189c.372-.312.753-.612,1.13-.916A3.651,3.651,0,0,1,5.9,216.7q2.363.005,4.726,0a1.115,1.115,0,0,1,.665.183.974.974,0,0,1,.389,1.085,1.01,1.01,0,0,1-.9.705c-.758.048-1.517.01-2.276.024-.091,0-.183,0-.274.009a.458.458,0,0,0-.407.453.463.463,0,0,0,.431.452c.291.012.582.007.873.007.907,0,1.815-.014,2.722,0a1.956,1.956,0,0,0,1.306-.465q1.212-.979,2.433-1.947a2.542,2.542,0,0,1,.6-.416.978.978,0,0,1,1.306.561c.014.037.028.075.042.112v.445a1.416,1.416,0,0,1-.513.687q-2.009,1.6-4.01,3.209a3.417,3.417,0,0,1-2.213.776q-4.991-.009-9.983,0A.8.8,0,0,1,0,222.127Z" transform="translate(0 -206.807)" fill="#fff"/>
    <path id="Path_363" data-name="Path 363" d="M96.561,2.579a3.872,3.872,0,0,1-.647,1.971,11.3,11.3,0,0,1-2.455,2.675,18.021,18.021,0,0,1-1.537,1.145.234.234,0,0,1-.3.018A15.141,15.141,0,0,1,87.981,5.1,4.814,4.814,0,0,1,87,3.033,2.6,2.6,0,0,1,88.9.055,2.163,2.163,0,0,1,90.639.4a3.48,3.48,0,0,1,1.03,1.038c.071.115.11.095.176,0A3.333,3.333,0,0,1,93.2.217a2.234,2.234,0,0,1,2.727.657,2.676,2.676,0,0,1,.63,1.7" transform="translate(-82.988 0)" fill="#fff"/>
  </g>
</svg>
 