<svg xmlns="http://www.w3.org/2000/svg" width="47.644" height="35.088" viewBox="0 0 47.644 35.088">
  <path id="Path_361" data-name="Path 361" d="M23.134-63.812,15.91-39.646,13.072-50.482a11.777,11.777,0,0,1,8.213,2.838,10.122,10.122,0,0,1,3.139,7.912,10.421,10.421,0,0,1-3.225,8,11.445,11.445,0,0,1-8.127,3.01,11.445,11.445,0,0,1-8.127-3.01,10.421,10.421,0,0,1-3.225-8,17.8,17.8,0,0,1,.215-2.752,18.072,18.072,0,0,1,.946-3.354Q3.612-47.816,5.074-51l6.02-12.814Zm24.94,0L40.85-39.646,38.012-50.482a11.777,11.777,0,0,1,8.213,2.838,10.122,10.122,0,0,1,3.139,7.912,10.421,10.421,0,0,1-3.225,8,11.445,11.445,0,0,1-8.127,3.01,11.445,11.445,0,0,1-8.127-3.01,10.421,10.421,0,0,1-3.225-8,17.8,17.8,0,0,1,.215-2.752,18.072,18.072,0,0,1,.946-3.354q.731-1.978,2.193-5.16l6.02-12.814Z" transform="translate(-1.72 63.812)" fill="#fff"/>
</svg>
