<svg xmlns="http://www.w3.org/2000/svg" width="36.934" height="27.201" viewBox="0 0 36.934 27.201">
  <path id="Path_361" data-name="Path 361" d="M18.32-63.812l-5.6,18.734-2.2-8.4a9.13,9.13,0,0,1,6.367,2.2,7.847,7.847,0,0,1,2.433,6.134,8.079,8.079,0,0,1-2.5,6.2,8.872,8.872,0,0,1-6.3,2.333,8.872,8.872,0,0,1-6.3-2.333,8.079,8.079,0,0,1-2.5-6.2,13.8,13.8,0,0,1,.167-2.133,14.01,14.01,0,0,1,.733-2.6q.567-1.533,1.7-4l4.667-9.934Zm19.334,0-5.6,18.734-2.2-8.4a9.13,9.13,0,0,1,6.367,2.2,7.847,7.847,0,0,1,2.433,6.134,8.079,8.079,0,0,1-2.5,6.2,8.872,8.872,0,0,1-6.3,2.333,8.872,8.872,0,0,1-6.3-2.333,8.079,8.079,0,0,1-2.5-6.2,13.8,13.8,0,0,1,.167-2.133,14.01,14.01,0,0,1,.733-2.6q.567-1.533,1.7-4l4.667-9.934Z" transform="translate(-1.72 63.812)" fill="#8cc04b"/>
</svg>
