<svg xmlns="http://www.w3.org/2000/svg" width="3.332" height="9.394" viewBox="0 0 3.332 9.394">
  <path id="Path_4170" data-name="Path 4170" d="M2.167-8.618a1,1,0,0,1-.732-.3,1,1,0,0,1-.3-.732,1.018,1.018,0,0,1,.3-.738.985.985,0,0,1,.732-.307,1.007,1.007,0,0,1,.738.307,1.007,1.007,0,0,1,.307.738.985.985,0,0,1-.307.732A1.018,1.018,0,0,1,2.167-8.618ZM1.278-1.3A1.357,1.357,0,0,1,.265-1.693,1.614,1.614,0,0,1-.12-2.869a4.53,4.53,0,0,1,.1-.849L.873-7.912H2.754L1.814-3.47a1.617,1.617,0,0,0-.052.418.479.479,0,0,0,.124.372.612.612,0,0,0,.412.111,1.053,1.053,0,0,0,.418-.078,1.387,1.387,0,0,1-.464,1A1.464,1.464,0,0,1,1.278-1.3Z" transform="translate(0.12 10.695)" fill="#fff"/>
</svg>
