<svg xmlns="http://www.w3.org/2000/svg" width="13.942" height="15.934" viewBox="0 0 13.942 15.934">
  <path id="Icon_awesome-building" data-name="Icon awesome-building" d="M13.569,14.938h-.622V.747A.747.747,0,0,0,12.2,0H1.743A.747.747,0,0,0,1,.747V14.938H.373A.373.373,0,0,0,0,15.312v.622H13.942v-.622A.373.373,0,0,0,13.569,14.938ZM3.984,2.365a.373.373,0,0,1,.373-.373H5.6a.373.373,0,0,1,.373.373V3.61a.373.373,0,0,1-.373.373H4.357a.373.373,0,0,1-.373-.373Zm0,2.988a.373.373,0,0,1,.373-.373H5.6a.373.373,0,0,1,.373.373V6.6a.373.373,0,0,1-.373.373H4.357A.373.373,0,0,1,3.984,6.6ZM5.6,9.959H4.357a.373.373,0,0,1-.373-.373V8.341a.373.373,0,0,1,.373-.373H5.6a.373.373,0,0,1,.373.373V9.585A.373.373,0,0,1,5.6,9.959Zm2.365,4.979H5.975V12.324a.373.373,0,0,1,.373-.373H7.594a.373.373,0,0,1,.373.373ZM9.959,9.585a.373.373,0,0,1-.373.373H8.341a.373.373,0,0,1-.373-.373V8.341a.373.373,0,0,1,.373-.373H9.585a.373.373,0,0,1,.373.373Zm0-2.988a.373.373,0,0,1-.373.373H8.341A.373.373,0,0,1,7.967,6.6V5.353a.373.373,0,0,1,.373-.373H9.585a.373.373,0,0,1,.373.373Zm0-2.988a.373.373,0,0,1-.373.373H8.341a.373.373,0,0,1-.373-.373V2.365a.373.373,0,0,1,.373-.373H9.585a.373.373,0,0,1,.373.373Z" fill="#fff"/>
</svg>
