<svg xmlns="http://www.w3.org/2000/svg" width="16.93" height="18.669" viewBox="0 0 16.93 18.669">
  <path id="Icon_simple-email" data-name="Icon simple-email" d="M18.588,8.617a9.628,9.628,0,0,1-.31,2.088,6.043,6.043,0,0,1-.812,1.834,4.285,4.285,0,0,1-1.377,1.3,3.885,3.885,0,0,1-2.01.5,2.914,2.914,0,0,1-1.454-.356,2.489,2.489,0,0,1-.982-1.007A3.114,3.114,0,0,1,9.009,14.3a2.679,2.679,0,0,1-2.3-1.237,4.048,4.048,0,0,1-.572-1.433A6.178,6.178,0,0,1,6.063,9.76a8.682,8.682,0,0,1,.569-2.289A6.222,6.222,0,0,1,7.685,5.718,4.452,4.452,0,0,1,9.131,4.6a4.037,4.037,0,0,1,1.759-.391,5.47,5.47,0,0,1,1.052.09,4.307,4.307,0,0,1,.817.245,4.416,4.416,0,0,1,.677.357c.206.133.414.271.621.411l-.511,5.88a1.954,1.954,0,0,0,.015.688.963.963,0,0,0,.21.425.756.756,0,0,0,.341.222,1.265,1.265,0,0,0,1.2-.236,2.551,2.551,0,0,0,.642-.817,5.259,5.259,0,0,0,.432-1.227,8.421,8.421,0,0,0,.189-1.528,9.767,9.767,0,0,0-.24-2.856,5.677,5.677,0,0,0-1.057-2.21,4.908,4.908,0,0,0-1.895-1.423,6.876,6.876,0,0,0-2.76-.505,6.1,6.1,0,0,0-2.73.595,6.264,6.264,0,0,0-2.074,1.65A7.917,7.917,0,0,0,4.457,6.45a11.182,11.182,0,0,0-.572,3.092A10.28,10.28,0,0,0,4.177,12.7a5.7,5.7,0,0,0,1.153,2.261,4.81,4.81,0,0,0,1.953,1.358,7.491,7.491,0,0,0,2.695.45,9.23,9.23,0,0,0,1.769-.19c.292-.058.568-.128.832-.205a6.261,6.261,0,0,0,.716-.257l.37,1.664a4.105,4.105,0,0,1-.8.4,7.715,7.715,0,0,1-.947.274,9.243,9.243,0,0,1-1.979.222,10.376,10.376,0,0,1-3.607-.581A6.639,6.639,0,0,1,3.7,16.36,7.261,7.261,0,0,1,2.121,13.5,12.177,12.177,0,0,1,1.68,9.542a12.086,12.086,0,0,1,.758-3.8A9.412,9.412,0,0,1,4.265,2.717,8.325,8.325,0,0,1,7.052.723,8.726,8.726,0,0,1,10.662,0a9.11,9.11,0,0,1,3.5.626,6.8,6.8,0,0,1,2.525,1.762,7.229,7.229,0,0,1,1.5,2.722A10.407,10.407,0,0,1,18.588,8.617ZM8.569,9.76a3.969,3.969,0,0,0,.205,1.968,1.055,1.055,0,0,0,1.015.665,1.121,1.121,0,0,0,.348-.064,1.24,1.24,0,0,0,.4-.24,2.136,2.136,0,0,0,.406-.49,3.76,3.76,0,0,0,.373-.828l.4-4.569a2.384,2.384,0,0,0-.621-.082,2.146,2.146,0,0,0-1.032.237,2.044,2.044,0,0,0-.731.7A4.083,4.083,0,0,0,8.846,8.2,9.7,9.7,0,0,0,8.57,9.759Z" transform="translate(-1.67)" fill="#fff"/>
</svg>
