<svg xmlns="http://www.w3.org/2000/svg" width="25.195" height="25.189" viewBox="0 0 25.195 25.189">
  <path id="Icon_awesome-instagram" data-name="Icon awesome-instagram" d="M12.595,8.374a6.458,6.458,0,1,0,6.458,6.458A6.448,6.448,0,0,0,12.595,8.374Zm0,10.657a4.2,4.2,0,1,1,4.2-4.2,4.206,4.206,0,0,1-4.2,4.2ZM20.824,8.11A1.506,1.506,0,1,1,19.317,6.6,1.5,1.5,0,0,1,20.824,8.11ZM25.1,9.639a7.455,7.455,0,0,0-2.035-5.278,7.5,7.5,0,0,0-5.278-2.035c-2.08-.118-8.313-.118-10.393,0A7.493,7.493,0,0,0,2.118,4.355,7.479,7.479,0,0,0,.083,9.633c-.118,2.08-.118,8.313,0,10.393A7.455,7.455,0,0,0,2.118,25.3,7.513,7.513,0,0,0,7.4,27.338c2.08.118,8.313.118,10.393,0A7.455,7.455,0,0,0,23.066,25.3,7.5,7.5,0,0,0,25.1,20.026c.118-2.08.118-8.307,0-10.387ZM22.414,22.257a4.251,4.251,0,0,1-2.394,2.394c-1.658.658-5.593.506-7.425.506s-5.772.146-7.425-.506a4.251,4.251,0,0,1-2.394-2.394c-.658-1.658-.506-5.593-.506-7.425s-.146-5.772.506-7.425A4.251,4.251,0,0,1,5.17,5.013c1.658-.658,5.593-.506,7.425-.506s5.772-.146,7.425.506a4.251,4.251,0,0,1,2.394,2.394c.658,1.658.506,5.593.506,7.425S23.072,20.6,22.414,22.257Z" transform="translate(0.005 -2.238)" fill="#fff"/>
</svg>
