<svg xmlns="http://www.w3.org/2000/svg" width="26.984" height="26.984" viewBox="0 0 26.984 26.984">
  <path id="Icon_awesome-linkedin-in" data-name="Icon awesome-linkedin-in" d="M6.04,26.984H.446V8.969H6.04ZM3.24,6.511A3.255,3.255,0,1,1,6.48,3.241,3.267,3.267,0,0,1,3.24,6.511ZM26.978,26.984H21.4v-8.77c0-2.09-.042-4.77-2.909-4.77-2.909,0-3.354,2.271-3.354,4.62v8.921H9.545V8.969H14.91v2.458h.078a5.878,5.878,0,0,1,5.293-2.909c5.662,0,6.7,3.728,6.7,8.571v9.9Z" transform="translate(0 -0.001)" fill="#fff"/>
</svg>
