<svg xmlns="http://www.w3.org/2000/svg" width="16.294" height="21.726" viewBox="0 0 16.294 21.726">
  <path id="Icon_awesome-phone-volume" data-name="Icon awesome-phone-volume" d="M4.13,21.512a14.1,14.1,0,0,1,0-19.941.73.73,0,0,1,.9-.1l2.75,1.719a.729.729,0,0,1,.291.889L6.7,7.515a.729.729,0,0,1-.75.455L3.58,7.733a11.272,11.272,0,0,0,0,7.617l2.368-.237a.729.729,0,0,1,.75.455l1.375,3.438a.729.729,0,0,1-.291.889l-2.75,1.719a.729.729,0,0,1-.9-.1ZM10.486,4.051a2.718,2.718,0,0,1,0,2.761.511.511,0,0,1-.794.11l-.254-.243a.513.513,0,0,1-.1-.611,1.361,1.361,0,0,0,0-1.271.513.513,0,0,1,.1-.611l.254-.243a.511.511,0,0,1,.794.11ZM14.381.182a8.159,8.159,0,0,1,0,10.5.511.511,0,0,1-.745.04l-.246-.236a.51.51,0,0,1-.039-.7,6.8,6.8,0,0,0,0-8.717.51.51,0,0,1,.039-.7l.246-.236a.511.511,0,0,1,.745.04ZM12.43,2.089a5.439,5.439,0,0,1,0,6.685.512.512,0,0,1-.758.055l-.247-.237a.509.509,0,0,1-.055-.676,4.079,4.079,0,0,0,0-4.97.509.509,0,0,1,.055-.676l.247-.237a.512.512,0,0,1,.758.055Z" transform="translate(0 0)" fill="#fff"/>
</svg>
