<svg xmlns="http://www.w3.org/2000/svg" width="15.935" height="15.934" viewBox="0 0 15.935 15.934">
  <path id="Icon_awesome-phone" data-name="Icon awesome-phone" d="M15.355.765,12.118.018a.752.752,0,0,0-.856.433L9.769,3.936a.745.745,0,0,0,.215.871l1.886,1.544a11.534,11.534,0,0,1-5.515,5.515L4.811,9.98a.746.746,0,0,0-.871-.215L.454,11.259a.756.756,0,0,0-.436.859l.747,3.237a.747.747,0,0,0,.728.579,14.439,14.439,0,0,0,14.44-14.44A.746.746,0,0,0,15.355.765Z" transform="translate(0.001 0.001)" fill="#fff"/>
</svg>
