<svg xmlns="http://www.w3.org/2000/svg" width="29.822" height="24.221" viewBox="0 0 29.822 24.221">
  <path id="Icon_awesome-twitter" data-name="Icon awesome-twitter" d="M26.757,9.417c.019.265.019.53.019.795,0,8.08-6.15,17.39-17.39,17.39A17.272,17.272,0,0,1,0,24.858a12.644,12.644,0,0,0,1.476.076,12.241,12.241,0,0,0,7.588-2.611,6.123,6.123,0,0,1-5.715-4.239,7.708,7.708,0,0,0,1.154.095,6.464,6.464,0,0,0,1.608-.208,6.113,6.113,0,0,1-4.9-6V11.9a6.155,6.155,0,0,0,2.763.776A6.121,6.121,0,0,1,2.081,4.5a17.373,17.373,0,0,0,12.6,6.4,6.9,6.9,0,0,1-.151-1.4A6.118,6.118,0,0,1,25.11,5.311a12.033,12.033,0,0,0,3.879-1.476A6.1,6.1,0,0,1,26.3,7.2a12.253,12.253,0,0,0,3.52-.946,13.138,13.138,0,0,1-3.065,3.16Z" transform="translate(0 -3.381)" fill="#fff"/>
</svg>
