<svg xmlns="http://www.w3.org/2000/svg" width="79.411" height="69.551" viewBox="0 0 79.411 69.551">
  <g id="Group_2226" data-name="Group 2226" transform="translate(0)">
    <path id="Path_364" data-name="Path 364" d="M324.7,73.842c.07-.166.146-.33.209-.5a5.776,5.776,0,0,1,5.781-4.053q18.244-.011,36.488,0c1.174,0,1.22,0,1.164-1.178a5.545,5.545,0,0,1,1.679-4.71,5.252,5.252,0,0,1,8.821,3.712,5.41,5.41,0,0,0,.094,1.91c.267.587,1.112.286,1.684.49a6.12,6.12,0,0,1,3.786,3.628c1.657,4.063,3.345,8.114,4.994,12.18a2.528,2.528,0,0,0,1.684,1.56c2.9.941,5.782,1.914,8.67,2.88a5.84,5.84,0,0,1,4.354,6.035q0,5.306,0,10.613a5.9,5.9,0,0,1-5.936,6.045c-1.29.027-2.583.023-3.873,0-.561-.01-.8.179-.929.76a9.829,9.829,0,0,1-19.228.031.835.835,0,0,0-.981-.792q-9.683.02-19.367,0a.857.857,0,0,0-1,.784,9.8,9.8,0,0,1-16.009,5.412,9.154,9.154,0,0,1-3.2-5.35c-.139-.69-.447-.875-1.093-.848a15.341,15.341,0,0,1-2.475-.043,6,6,0,0,1-5.32-4.618V87.636c.466-.434.939-.835,1.645-.514.69.314.743.908.74,1.559-.012,2.35.027,4.7-.022,7.049-.017.782.2,1.007,1,1q15.106-.039,30.211,0c.728,0,.981-.186.978-.949q-.038-11.542,0-23.084c0-.8-.247-.992-1.017-.99-9.089.025-18.178.014-27.267.018a3.539,3.539,0,0,0-3.884,3.906q-.01,3.37,0,6.739c0,.65-.052,1.251-.729,1.572-.7.33-1.18-.072-1.655-.493Zm37.072,10.4V95.4c0,1.317,0,1.317,1.279,1.317h14.8a7.113,7.113,0,0,1,.851.02,1.1,1.1,0,0,1,1.065,1.121,1.145,1.145,0,0,1-.992,1.269,5.566,5.566,0,0,1-.851.028c-5.088,0-10.177.011-15.266-.011-.661,0-.909.168-.9.867.033,3.022.022,6.044.006,9.066,0,.557.106.854.761.85,3.59-.024,7.181-.017,10.771-.006.505,0,.709-.188.82-.692a9.831,9.831,0,0,1,19.259-.017.751.751,0,0,0,.885.71c1.188-.022,2.376,0,3.564-.007a3.491,3.491,0,0,0,3.845-3.837c.009-1.963,0-3.926,0-5.889,0-1.03,0-1.032-1.009-1.032q-8.1,0-16.2,0a1.824,1.824,0,0,1-1.124-.2,1.216,1.216,0,0,1,.763-2.238q3.719,0,7.439,0c3.125,0,6.251-.011,9.376.009.57,0,.763-.18.762-.758a3.62,3.62,0,0,0-2.73-3.837c-2.887-.973-5.775-1.944-8.671-2.89a4.9,4.9,0,0,1-3.206-3.008c-1.606-4-3.3-7.967-4.9-11.97a3.722,3.722,0,0,0-3.826-2.545c-5.192.012-10.384,0-15.576,0-1,0-1,0-1,1.049q0,5.734,0,11.468M343.182,99.157H327.924c-.411,0-.849-.079-.844.581.018,2.272-.052,4.546.031,6.815a3.369,3.369,0,0,0,3.594,3.362c.491,0,.981,0,1.472,0,1.185,0,1.185,0,1.467-1.12a9.779,9.779,0,0,1,11.274-7.281,9.541,9.541,0,0,1,7.849,7.516c.18.694.445.921,1.139.9q2.205-.069,4.414,0c.709.022.939-.207.93-.922q-.051-4.453,0-8.906c.01-.749-.225-.964-.967-.959-5.034.029-10.068.015-15.1.015m.048,19.363a7.348,7.348,0,0,0,7.309-7.458,7.427,7.427,0,0,0-7.389-7.25,7.354,7.354,0,0,0,.08,14.708m40.538-14.707a7.361,7.361,0,1,0,7.357,7.382,7.466,7.466,0,0,0-7.357-7.382M373.54,69.283c.772,0,1.544-.006,2.316,0,.384,0,.57-.153.561-.55a9.33,9.33,0,0,0-.146-2.226,2.756,2.756,0,0,0-5.341.026,9.5,9.5,0,0,0-.138,2.226c-.01.416.222.527.586.523.72-.008,1.441,0,2.161,0" transform="translate(-324.705 -51.481)" fill="#fff"/>
    <path id="Path_365" data-name="Path 365" d="M539.527,17.734c0-.593-.023-1.188.006-1.78a1.2,1.2,0,0,1,2.408,0q.045,1.779,0,3.559a1.2,1.2,0,1,1-2.408,0c-.028-.592-.006-1.186-.005-1.78" transform="translate(-491.84 -14.765)" fill="#fff"/>
    <path id="Path_366" data-name="Path 366" d="M515.515,26.191a1.254,1.254,0,0,1-.747,1.087,1.072,1.072,0,0,1-1.348-.258,12.954,12.954,0,0,1-1.8-3.225,1.206,1.206,0,0,1,2.01-1.125,14.557,14.557,0,0,1,1.86,3.284.905.905,0,0,1,.03.237" transform="translate(-470.081 -20.63)" fill="#fff"/>
    <path id="Path_367" data-name="Path 367" d="M564.638,23.645a1.464,1.464,0,0,1-.223.734c-.44.788-.872,1.582-1.337,2.355a1.249,1.249,0,0,1-1.717.563,1.218,1.218,0,0,1-.457-1.732c.467-.89.96-1.769,1.487-2.625a1.131,1.131,0,0,1,1.424-.48,1.167,1.167,0,0,1,.824,1.184" transform="translate(-508.337 -20.689)" fill="#fff"/>
    <path id="Path_368" data-name="Path 368" d="M375.377,132.471c0,.594.017,1.188,0,1.781a2.137,2.137,0,0,1-2.257,2.228c-.877.015-1.755.017-2.633,0a2.1,2.1,0,0,1-2.212-1.947,26.154,26.154,0,0,1-.059-3.866c.007-.681-.231-.912-.9-.887-1.109.041-2.22.025-3.329.006a2.276,2.276,0,0,1-2.483-2.519c-.006-.749-.01-1.5,0-2.246a2.246,2.246,0,0,1,2.424-2.414c1.135-.017,2.273-.038,3.407.008.694.028.9-.24.879-.9-.039-1.083-.03-2.169,0-3.252a2.267,2.267,0,0,1,2.593-2.546c.8,0,1.6-.015,2.4.007a2.1,2.1,0,0,1,2.169,2.145c.032,1.238.04,2.479,0,3.717-.022.659.232.849.857.83,1.161-.036,2.323-.025,3.484,0a2.215,2.215,0,0,1,2.416,2.189,12.663,12.663,0,0,1-.031,2.936,2.175,2.175,0,0,1-2.3,2.048c-1.213.03-2.427.027-3.639,0-.554-.011-.81.164-.778.753.036.643.008,1.29.008,1.936Zm-4.648-1.3h0c0,.748.015,1.5-.006,2.244-.012.467.18.666.642.634a3.941,3.941,0,0,1,.7,0c.628.069.8-.233.792-.817-.026-1.315-.031-2.632,0-3.947a1.836,1.836,0,0,1,2.089-2.031c1.238-.012,2.478-.038,3.714.01.72.028,1.086-.168.971-.941a1.908,1.908,0,0,1,0-.464c.053-.537-.188-.734-.719-.725-1.264.022-2.528.012-3.792,0-1.6-.01-2.243-.646-2.266-2.264-.018-1.238-.025-2.477,0-3.715.013-.587-.171-.884-.8-.812a2.907,2.907,0,0,1-.618,0c-.539-.054-.729.18-.72.715.025,1.341.016,2.683,0,4.024a1.819,1.819,0,0,1-2.057,2.048c-1.29.015-2.581.037-3.869-.006-.951-.031-.743.616-.774,1.155-.033.571.008,1.007.793.978,1.34-.048,2.683-.033,4.024,0a1.753,1.753,0,0,1,1.883,1.9c.014.671,0,1.341,0,2.012" transform="translate(-353.327 -93.458)" fill="#fff"/>
    <path id="Path_369" data-name="Path 369" d="M511.516,130.731q-3.836,0-7.671,0c-1.839,0-2.615-.763-2.617-2.572q-.008-4.882,0-9.764c0-1.727.735-2.467,2.439-2.469q5.7-.007,11.391,0a2.1,2.1,0,0,1,2.422,1.6q2.022,4.989,4.023,9.987c.751,1.883-.139,3.2-2.16,3.214-2.609.012-5.217,0-7.827,0m-.093-2.539c2.27,0,4.539-.016,6.808.01.646.007.819-.124.548-.78q-1.726-4.182-3.371-8.4a.937.937,0,0,0-1.042-.673q-4.874.031-9.748,0c-.616,0-.872.157-.864.82q.044,4.1,0,8.2c-.007.656.239.837.86.83,2.269-.027,4.539-.01,6.808-.01" transform="translate(-462.044 -93.47)" fill="#fff"/>
    <path id="Path_370" data-name="Path 370" d="M398.978,271.18a3.617,3.617,0,0,1-3.521,3.6,3.586,3.586,0,1,1-.014-7.171,3.61,3.61,0,0,1,3.535,3.575m-2.548.023a.974.974,0,0,0-.992-1.05,1.061,1.061,0,0,0-1.088,1.062,1.083,1.083,0,0,0,1.065,1.017.978.978,0,0,0,1.015-1.029" transform="translate(-376.93 -211.486)" fill="#fff"/>
    <path id="Path_371" data-name="Path 371" d="M578.175,267.6a3.586,3.586,0,1,1-3.585,3.622,3.651,3.651,0,0,1,3.585-3.622m1.042,3.566a1.04,1.04,0,0,0-2.081.027,1.04,1.04,0,1,0,2.081-.027" transform="translate(-519.127 -211.485)" fill="#fff"/>
  </g>
</svg>
