<svg xmlns="http://www.w3.org/2000/svg" width="70.697" height="69.551" viewBox="0 0 70.697 69.551">
  <g id="Group_2224" data-name="Group 2224" transform="translate(0)">
    <path id="Path_394" data-name="Path 394" d="M1203.249,107.24q-14.8,0-29.6,0a5.618,5.618,0,0,1-5.754-5.778q0-15.9,0-31.809a5.6,5.6,0,0,1,3.941-5.5c.453-.158.661-.361.621-.857-.043-.518-.014-1.043-.008-1.565a3.486,3.486,0,0,1,3.574-3.547,73.513,73.513,0,0,1,13.2,1.373c.573.108.83.12.959-.62a13.216,13.216,0,0,1,26.058-.141c.147.914.144.9,1.073.726a83.012,83.012,0,0,1,9.655-1.211c1.208-.078,2.414-.142,3.623-.128A3.371,3.371,0,0,1,1234,61.63c-.046,1.4.058,2.344,1.658,3.013,2.021.846,2.921,2.749,2.922,4.981q0,15.9,0,31.809a5.649,5.649,0,0,1-5.8,5.805q-14.766.011-29.532,0M1174.82,79.831q0,8.753,0,17.506c0,1.419.4,1.838,1.812,1.833a58.456,58.456,0,0,1,7.231.485,75.55,75.55,0,0,1,17.439,4.233c.738.276.744.267.744-.569,0-5.978-.01-11.955.015-17.933,0-.7-.151-.98-.9-.936-.883.052-1.377-.421-1.384-1.159s.486-1.191,1.36-1.2q2.1-.015,4.2,0c.873.006,1.367.455,1.359,1.2a1.15,1.15,0,0,1-1.387,1.157c-.754-.045-.9.245-.9.939.025,5.977.015,11.955.015,17.933,0,.836,0,.836.768.554.089-.033.176-.071.265-.1a75.3,75.3,0,0,1,17.813-4.178,65.154,65.154,0,0,1,6.807-.428c1.072,0,1.5-.439,1.559-1.512.011-.189.006-.379.006-.569q0-17.221,0-34.443a5.994,5.994,0,0,0-.035-.851,1.277,1.277,0,0,0-1.528-1.212c-1.277.086-2.554.151-3.83.246a73.593,73.593,0,0,0-9.148,1.238.791.791,0,0,0-.734.786,12.752,12.752,0,0,1-4.851,8.64,5.936,5.936,0,0,0-2.443,4.6,3.923,3.923,0,0,1-4.129,3.826c-1.233,0-2.467.019-3.7-.007a3.845,3.845,0,0,1-3.735-3.6,6.167,6.167,0,0,0-2.521-4.865,12.683,12.683,0,0,1-4.7-7.581c-.385-1.758-.38-1.733-2.151-2.038a84.216,84.216,0,0,0-11.3-1.2c-1.591-.057-2.018.258-2.019,1.842q0,8.682,0,17.364m25.391-15.817c.172.245.268.4.385.546,1.064,1.274,2.116,2.557,3.206,3.809a2.435,2.435,0,0,1,.635,1.741c-.032,2.133-.012,4.267-.011,6.4,0,1.076.408,1.318,1.374.793a1.488,1.488,0,0,0,.814-1.327,8.313,8.313,0,0,1,3.33-6.392,10.409,10.409,0,0,0,3.933-10.1,10.789,10.789,0,1,0-17.27,10.193,8.133,8.133,0,0,1,3.25,6.285,1.481,1.481,0,0,0,1.261,1.5c.786.192.928.087.929-.715,0-1.9-.026-3.794.016-5.69a2.41,2.41,0,0,0-.634-1.73c-1.572-1.837-3.1-3.707-4.658-5.561a1.329,1.329,0,0,1-.3-1.507,1.255,1.255,0,0,1,1.3-.67q5.442.014,10.883,0a1.262,1.262,0,0,1,1.342.715,1.286,1.286,0,0,1-.423,1.528c-1.193,1.187-2.376,2.385-3.575,3.567-.644.635-1.272.679-1.815.164-.563-.534-.532-1.2.125-1.863.529-.531,1.093-1.029,1.641-1.541l-.107-.147Zm10.053,40.849q11.061,0,22.124,0c2.45,0,3.814-1.386,3.817-3.861q.008-5.976,0-11.952,0-9.5,0-18.994a3.72,3.72,0,0,0-1-2.8c-.284-.282-.631-.714-.988-.6-.395.127-.177.665-.177,1.015q-.016,15.082-.011,30.164a3.513,3.513,0,0,1-3.487,3.714c-3.193.174-6.385.358-9.55.842a66.744,66.744,0,0,0-10.726,2.472m-14.054,0a53.509,53.509,0,0,0-6.677-1.758,88.772,88.772,0,0,0-13.4-1.555c-2.5-.131-3.692-1.494-3.692-4.007q0-14.941,0-29.883c0-.19-.01-.38,0-.569.029-.477-.162-.544-.542-.31a3.365,3.365,0,0,0-1.628,3.057q-.018,15.724,0,31.448a3.36,3.36,0,0,0,3.525,3.567c7.47.026,14.94.01,22.41.01" transform="translate(-1167.888 -37.691)" fill="#fff"/>
    <path id="Path_395" data-name="Path 395" d="M1372,23.254a1.314,1.314,0,0,1-.432,1.053c-.989.989-1.969,1.987-2.97,2.963a1.212,1.212,0,1,1-1.685-1.717c.981-1,1.978-1.978,2.974-2.96a1.176,1.176,0,0,1,1.359-.33,1.147,1.147,0,0,1,.753.991" transform="translate(-1324.237 -17.458)" fill="#fff"/>
    <path id="Path_396" data-name="Path 396" d="M1331.046,3.5c0,.733.016,1.466,0,2.2a1.182,1.182,0,1,1-2.362-.006q-.027-2.234,0-4.468a1.181,1.181,0,1,1,2.361.007c.02.756,0,1.513,0,2.27" transform="translate(-1294.512 -0.001)" fill="#fff"/>
    <path id="Path_397" data-name="Path 397" d="M1280.061,27.627a1.109,1.109,0,0,1-.82-.386c-.987-.991-1.983-1.972-2.955-2.976a1.2,1.2,0,1,1,1.68-1.7c1.016.994,2.014,2.007,3.01,3.022a1.149,1.149,0,0,1,.234,1.376,1.133,1.133,0,0,1-1.15.663" transform="translate(-1252.91 -17.432)" fill="#fff"/>
    <path id="Path_398" data-name="Path 398" d="M1373.32,241.846c.384,0,.622-.012.858,0a1.146,1.146,0,0,1,1.14,1.052,1.134,1.134,0,0,1-.959,1.29c-.913.135-1.836.2-2.756.281a75.631,75.631,0,0,0-14.353,2.76,4.456,4.456,0,0,1-1.317.266c-.8-.012-1.288-.367-1.39-1.036a1.23,1.23,0,0,1,1-1.353,77.011,77.011,0,0,1,7.58-1.906,81.286,81.286,0,0,1,10.2-1.356" transform="translate(-1314.881 -190.468)" fill="#fff"/>
    <path id="Path_399" data-name="Path 399" d="M1217.946,241.182a80.191,80.191,0,0,1,12.484,1.9c1.73.4,3.443.873,5.144,1.384a1.629,1.629,0,0,1,1.044.68,1.155,1.155,0,0,1-.081,1.394,1.226,1.226,0,0,1-1.4.439c-1.6-.449-3.186-.919-4.793-1.322a71.079,71.079,0,0,0-12.323-1.99,7.61,7.61,0,0,1-.774-.108,1.191,1.191,0,1,1,.2-2.374c.166,0,.332,0,.5,0" transform="translate(-1205.901 -189.947)" fill="#fff"/>
    <path id="Path_400" data-name="Path 400" d="M1373.54,214.382c.258,0,.425-.008.59,0a1.156,1.156,0,0,1,1.18,1.089,1.138,1.138,0,0,1-.99,1.267c-.817.129-1.646.183-2.471.258a74.973,74.973,0,0,0-15.162,3c-1.19.364-1.888.115-2.118-.719-.216-.784.226-1.277,1.428-1.645a81.5,81.5,0,0,1,15.3-3.074c.777-.083,1.558-.125,2.245-.179" transform="translate(-1314.873 -168.839)" fill="#fff"/>
    <path id="Path_401" data-name="Path 401" d="M1217.52,187.933a79.684,79.684,0,0,1,18.056,3.32c.818.249,1.177.674,1.135,1.329a1.158,1.158,0,0,1-1.013,1.117,1.733,1.733,0,0,1-.9-.133,77.347,77.347,0,0,0-12.841-2.728c-1.243-.161-2.5-.23-3.748-.344-.33-.03-.663-.052-.988-.114a1.188,1.188,0,0,1-1.074-1.4,1.222,1.222,0,0,1,1.376-1.043" transform="translate(-1205.882 -148.008)" fill="#fff"/>
    <path id="Path_402" data-name="Path 402" d="M1374,188.367a1.229,1.229,0,0,1,1.356,1.157c.039.748-.467,1.248-1.367,1.312-2.15.154-4.292.379-6.426.694a76.452,76.452,0,0,0-10.67,2.389c-.227.068-.456.133-.685.194a1.167,1.167,0,0,1-1.578-.763,1.2,1.2,0,0,1,.9-1.534c1.544-.459,3.092-.911,4.656-1.3a82.52,82.52,0,0,1,13.6-2.14c.071-.005.141-.007.213-.01" transform="translate(-1314.915 -148.353)" fill="#fff"/>
    <path id="Path_403" data-name="Path 403" d="M1217.992,214.4a76.933,76.933,0,0,1,12.44,1.9c1.657.4,3.3.864,4.941,1.321.95.264,1.361.847,1.155,1.558-.214.74-.86,1.036-1.79.757a78.716,78.716,0,0,0-10.593-2.394c-2.177-.338-4.369-.536-6.561-.735-1.063-.1-1.514-.589-1.431-1.373.078-.733.6-1.058,1.653-1.037h.185" transform="translate(-1205.893 -168.858)" fill="#fff"/>
    <path id="Path_404" data-name="Path 404" d="M1218.149,150.571c2.554.164,5.088.49,7.614.9.876.141,1.368.723,1.263,1.424s-.706,1.123-1.613,1.017c-1.552-.181-3.1-.423-4.646-.613-.869-.107-1.744-.154-2.615-.242a6.016,6.016,0,0,1-1.12-.176,1.188,1.188,0,0,1-.87-1.367,1.207,1.207,0,0,1,1.279-1c.236,0,.472.038.708.059" transform="translate(-1205.894 -118.539)" fill="#fff"/>
    <path id="Path_405" data-name="Path 405" d="M1218.018,128.46c1.337.148,2.678.271,4.01.455a1.182,1.182,0,0,1,1.134,1.29,1.166,1.166,0,0,1-1.339,1.076c-1.507-.1-3.012-.239-4.513-.411a1.165,1.165,0,0,1-1.151-1.333c.067-.664.556-1.041,1.358-1.044h.5l0-.031" transform="translate(-1205.899 -101.172)" fill="#fff"/>
  </g>
</svg>
