<svg xmlns="http://www.w3.org/2000/svg" width="77.408" height="69.551" viewBox="0 0 77.408 69.551">
  <g id="Group_2225" data-name="Group 2225" transform="translate(0)">
    <path id="Path_372" data-name="Path 372" d="M768.016,79.637a11.694,11.694,0,0,1,3.31-6.154c.344-.329.271-.737.271-1.131q0-15.75,0-31.5a8.257,8.257,0,0,1,.128-1.728,5.324,5.324,0,0,1,4.362-4.261c.568-.1.818-.3.805-.923-.016-.789.035-1.487-.865-1.932a1.85,1.85,0,0,1-.769-1.792c-.019-1.611-.03-3.223,0-4.834a2.114,2.114,0,0,1,2.286-2.265q4.343-.038,8.687,0a2.082,2.082,0,0,1,2.213,2.242c.018,1.637.011,3.273,0,4.91a2.071,2.071,0,0,1-1.154,2.047c-.567.272-.368.777-.372,1.2-.011,1.055-.167,1.141,1.036,1.411a5.277,5.277,0,0,1,4.13,5.2q.021,1.737,0,3.475c-.007.491.126.673.666.569a5.226,5.226,0,0,1,2.9.227.994.994,0,0,0,1.093-.2,5.657,5.657,0,0,1,6.882-.227c.445.3.7.2,1.025-.137,1.5-1.525,3.016-3.037,4.531-4.548,1.347-1.343,2.482-1.3,3.718.124a10.045,10.045,0,0,1,1.875,2.992c.224.591.477.6,1,.337a9.051,9.051,0,0,1,7.385-.481,1.875,1.875,0,0,1,1.262,1.289,8.456,8.456,0,0,1,.473,4.006c-.073.407.082.549.492.5a6.067,6.067,0,0,1,6.576,5.141c.055.413.329.452.639.487a11.633,11.633,0,0,1,2.591.473,2.115,2.115,0,0,1,1.412,1.446,8.523,8.523,0,0,1,.055,5.269,1.016,1.016,0,0,0,.262,1.27,1.825,1.825,0,0,1,.576,1.582,27.85,27.85,0,0,1-.339,3.9c-.13.571.065.8.619.954a4.625,4.625,0,0,1,2.476,3.828,2.323,2.323,0,0,1-1.057,1.67,13.091,13.091,0,0,0-1.883,1.447q1.413-.254,2.825-.507c.792-.14,1.58-.322,2.379-.405a2.189,2.189,0,0,1,2.6,1.841A10.4,10.4,0,0,1,845.41,78a2.222,2.222,0,0,1-1.971,2.583c-1.677.322-3.357.624-5.055,1.064.693.164,1.389.319,2.079.5a2.352,2.352,0,0,1,2,3.059c-.072.421-.113.849-.21,1.264a2.248,2.248,0,0,1-2.671,1.749q-3.863-.687-7.723-1.392c-1.046-.189-1.045-.192-1.1.866a5.267,5.267,0,0,1-4.6,4.848,22.164,22.164,0,0,1-2.335.108q-21.6,0-43.208,0a12.822,12.822,0,0,1-9.709-3.965,11.831,11.831,0,0,1-2.9-5.72ZM799.3,54.7c2.089-.016,4.177-.047,6.265-.035.509,0,.794-.128.908-.651a4.427,4.427,0,0,1,.827-1.765.642.642,0,0,0-.025-.88,3.492,3.492,0,0,0-2.158-1.4c-1.06-.235-1.322-.519-1.444-1.551a3.149,3.149,0,0,0-2.437-2.925,3.268,3.268,0,0,0-3.571,1.19,1.328,1.328,0,0,1-2.037.359,3.423,3.423,0,0,0-2.162-.5,3.3,3.3,0,0,0-2.958,4.083c.248,1.194.16,1.416-.857,2.049a3.553,3.553,0,0,0-.906.789,3,3,0,0,0-.008,3.93c.063-.233.134-.441.173-.655A2.469,2.469,0,0,1,791,54.641a7.852,7.852,0,0,1,5.389.343c1.124.548,2.016.715,2.9-.273l.014-.009m19.766-.025a2.2,2.2,0,0,1,1.52,2.345,11.158,11.158,0,0,1-.795,3.746c-.188.433-.173.663.366.79a1.094,1.094,0,0,1,.866,1.182,1.131,1.131,0,0,1-1.04,1.119,7.844,7.844,0,0,1-1.2.077q-17.222.006-34.443,0c-.251,0-.5.01-.755,0-.426-.014-.592.2-.557.606.059.677.1,1.355.176,2.03.037.339.128.584.612.556a1.129,1.129,0,0,1,1.289,1.094c.048.559.243.64.768.553a10.5,10.5,0,0,1,5.285.386,3.407,3.407,0,0,1,2.147,1.668,1.809,1.809,0,0,0,.811.838,11.064,11.064,0,0,1,5.049,5.8c.264.7.547.834,1.2.539a15.937,15.937,0,0,1,2.2-.8,1.147,1.147,0,0,1,1.469.726,1.18,1.18,0,0,1-.666,1.5,5,5,0,0,1-.555.235c-1.74.663-3.467,1.365-5.23,1.964-.678.23-.774.573-.628,1.169a9.266,9.266,0,0,1,.238,1.335,1.18,1.18,0,0,1-.972,1.329,1.116,1.116,0,0,1-1.345-.819A6.165,6.165,0,0,1,794.6,83.4c-.054-.405-.217-.529-.6-.381-1.36.529-2.741,1.009-4.078,1.591a2.936,2.936,0,0,0,1.149,5.546c4.179.027,8.359.006,12.538.02.574,0,.7-.258.6-.752-.146-.765-.324-1.528-.413-2.3-.1-.854.263-1.373.928-1.485.725-.122,1.242.255,1.429,1.1q.309,1.4.547,2.814c.07.415.232.62.68.618q3.89-.016,7.78,0c.414,0,.533-.153.442-.552-.106-.465-.171-.94-.252-1.411a1.269,1.269,0,0,1,.934-1.629c.7-.143,1.275.314,1.458,1.186.123.59.241,1.184.325,1.781.059.42.241.63.683.623.856-.013,1.712-.016,2.568,0,.444.009.572-.145.483-.588-.188-.936-.374-1.876-.481-2.824-.1-.869.318-1.421,1.009-1.5.654-.079,1.17.337,1.344,1.147.217,1.008.418,2.02.581,3.038.082.512.284.728.83.738a2.906,2.906,0,0,0,3.151-3.72q-1.032-5.908-2.194-11.792c-.422-2.141-2.1-3.007-4.15-2.234-2.591.974-5.169,1.984-7.768,2.936a.733.733,0,0,0-.566,1,25.087,25.087,0,0,1,.426,2.526,1.1,1.1,0,0,1-.948,1.258,1.172,1.172,0,0,1-1.374-.9A12.4,12.4,0,0,1,811.383,78c-.264-1.388-.261-1.388-1.637-.961-.856.266-1.5.014-1.75-.69a1.227,1.227,0,0,1,.9-1.582c4.138-1.58,8.267-3.183,12.427-4.7a5.188,5.188,0,0,1,6.694,2.772c.209.437.377.5.779.256q2.491-1.5,5.008-2.954a1.273,1.273,0,0,0,.621-.891,35.733,35.733,0,0,0,.63-4.478c.063-.615-.147-.854-.789-.844-1.913.031-3.826.012-5.74.01-.68,0-1.362.025-2.038-.026a1.29,1.29,0,0,1-1.342-1.257,1.311,1.311,0,0,1,1.411-1.186,1.986,1.986,0,0,1,.3,0c.564.057.686-.247.644-.738a2.777,2.777,0,0,0-2.262-2.511,1.715,1.715,0,0,1-1.544-1.719,2.838,2.838,0,0,0-4.625-1.822M774.074,51.4c0,1.938,0,3.876,0,5.814,0,.445.038.79.629.787,3.046-.014,6.091.007,9.137-.016a1.965,1.965,0,0,0,1.787-1.908,5.132,5.132,0,0,1,1.311-4.189,3.2,3.2,0,0,0,1.083-2.445,4.987,4.987,0,0,1,1.41-3.415.828.828,0,0,0,.245-.891c-.149-.363-.514-.232-.8-.253-.376-.027-.757-.005-1.129-.053-.815-.1-1.3-.581-1.285-1.222.017-.7.544-1.152,1.39-1.189,2.04-.092,2.043-.092,1.858-2.161a6.262,6.262,0,0,0-.146-.893,2.818,2.818,0,0,0-2.54-2.14c-3.423-.036-6.846-.046-10.268,0a2.8,2.8,0,0,0-2.66,2.7c-.03.578.012,1.159-.026,1.736-.041.61.232.776.8.767,1.711-.027,3.423-.01,5.134-.009.428,0,.857-.017,1.283.014a1.208,1.208,0,0,1,1.215,1.119,1.191,1.191,0,0,1-1.071,1.242,6.069,6.069,0,0,1-1.05.085c-1.813.008-3.625.024-5.437-.006-.646-.011-.9.195-.885.865.034,1.887.012,3.775.012,5.663m8.542,38.775c1.132,0,2.265-.018,3.4.008.562.013.627-.128.4-.644a5.336,5.336,0,0,1,.491-5.507,6.1,6.1,0,0,1,3.067-2.088c2.191-.819,4.373-1.663,6.561-2.489.379-.143.7-.259.512-.794a9.179,9.179,0,0,0-4.289-4.975c-.485-.274-.789.184-1.165.327-.288.11-.177.357-.127.583a2.1,2.1,0,0,1-2.232,2.82,8.931,8.931,0,0,1-4.7-1.447,1.049,1.049,0,0,0-1.227.009,8.688,8.688,0,0,1-4.851,1.431,2.03,2.03,0,0,1-2.108-2.609c.156-.58.018-.8-.486-1.014a.932.932,0,0,0-.989.034,17.2,17.2,0,0,0-1.412,1,8.105,8.105,0,0,0-3.071,6.688,8.9,8.9,0,0,0,6.179,8.052,17.535,17.535,0,0,0,6.042.61m-8.362-18.789c.733-1.841,2.3-2.295,3.939-2.6a12.329,12.329,0,0,1,2.1-.177c.536-.008.755-.214.658-.729a32.729,32.729,0,0,1-.343-3.753,2.16,2.16,0,0,1,1.677-2.625.658.658,0,0,0,.5-.73c-.023-.457-.408-.285-.641-.287-2.392-.014-4.785.012-7.177-.021-.688-.01-.922.206-.915.9.029,3.1.012,6.195.015,9.292a1,1,0,0,0,.181.73m57.3,7.675a1.234,1.234,0,0,1-1.3-.772,1.127,1.127,0,0,1,.356-1.359,6.956,6.956,0,0,1,.732-.533c1.986-1.33,3.967-2.667,5.967-3.977.435-.285.4-.537.166-.925s-.463-.439-.853-.206q-3.662,2.183-7.345,4.334c-.307.18-.512.371-.434.776.456,2.395.9,4.792,1.344,7.189a.641.641,0,0,0,.6.563q4.306.763,8.606,1.561c.367.068.5-.076.59-.387.175-.567-.039-.825-.6-.95-2.43-.539-4.852-1.111-7.28-1.658-.7-.158-1.235-.466-1.262-1.266-.023-.68.42-1.1,1.331-1.266q5.042-.935,10.084-1.858c.446-.082.749-.209.638-.779s-.469-.488-.848-.419q-2.225.406-4.448.82l-6.042,1.111M809.315,57.036q-4,0-8,0c-.955,0-1.032.1-.855,1.058a9.827,9.827,0,0,0,.589,2.022c.569,1.354.565,1.335,2.041,1.36a1.552,1.552,0,0,0,1.384-.578,4.73,4.73,0,0,1,.809-.788,1.206,1.206,0,0,1,2.03.807c.087.543.49.778.88.418a1.349,1.349,0,0,1,2.157-.01c.212.21.66.338.71-.183a1.3,1.3,0,0,1,.849-1.29,1.282,1.282,0,0,1,1.518.565,2.708,2.708,0,0,0,2.773,1.058.879.879,0,0,0,.788-.461,9.939,9.939,0,0,0,1.073-3.118c.138-.711-.081-.878-.751-.871-2.666.026-5.332.011-8,.011M820.02,44.157a6.924,6.924,0,0,0-6.531,4.494c-.117.311-.365.653-.122.995a1.691,1.691,0,0,0,1.832.1c.752-.741,1.481-1.506,2.247-2.232a1.231,1.231,0,0,1,1.87-.1,1.27,1.27,0,0,1-.15,1.823c-.584.623-1.179,1.239-1.811,1.813a.754.754,0,0,0-.13,1.195c.4.569.658.165.985.01a3.566,3.566,0,0,1,.826-.358,3.458,3.458,0,0,0,2.244-1.513,5.763,5.763,0,0,0,1.225-3.77c-.056-2.311-.265-2.387-2.485-2.461M781.894,25.582c-1.157,0-2.315.017-3.471-.008-.523-.011-.717.185-.7.706.026,1.031.02,2.063,0,3.094-.008.468.147.694.647.691q3.471-.018,6.943,0c.482,0,.68-.194.672-.675-.015-1.031-.025-2.063,0-3.094.017-.579-.241-.735-.773-.723-1.106.025-2.214.008-3.32.008m8.777,46.049a8.283,8.283,0,0,0-5.822-.089,1.976,1.976,0,0,1-1.6.092,7.832,7.832,0,0,0-3.767-.548,4.728,4.728,0,0,0-2.309.583,6.344,6.344,0,0,0,1.792.522,1.236,1.236,0,0,1,.652,2.145c-.137.156-.394.241-.35.546a1.4,1.4,0,0,0,.734-.091,9.35,9.35,0,0,0,2.95-1.475,1.377,1.377,0,0,1,1.982.016,8.858,8.858,0,0,0,2.951,1.467,1.045,1.045,0,0,0,.816.032,2.408,2.408,0,0,0-.207-.269c-.434-.406-.837-.824-.63-1.5.2-.655.748-.811,1.334-.943a3.09,3.09,0,0,0,1.472-.493m3.13-10.172a1.335,1.335,0,0,0-.066-.294,1.184,1.184,0,0,1,.278-1.676c.529-.422,1.094-.314,1.737.3.434.417.88.828,1.273,1.283.461.535,1.048.375,1.61.37a.2.2,0,0,0,.2-.314,11.507,11.507,0,0,0-.828-2.17,6.313,6.313,0,0,0-6.128-2,.759.759,0,0,0-.622.567,6.05,6.05,0,0,0,.137,3.482c.086.252.211.455.523.453.619,0,1.237,0,1.892,0m17.546-14.818a.561.561,0,0,0,.52-.23c1.259-1.447,1.322-1.872.428-3.6-.241-.466-.553-.9-.836-1.339-.3-.475-.588-.49-1-.062-1.39,1.451-2.814,2.869-4.225,4.3a1.269,1.269,0,0,0,.433,2.186,5.136,5.136,0,0,1,2.46,1.912c.375.583.736.31,1.15.165.293-.1.5-.274.443-.6-.111-.586-.6-.267-.924-.357a.816.816,0,0,0-.15-.006,1.189,1.189,0,0,1-.175-2.368,5.228,5.228,0,0,1,1.874,0m14.482,3.845a3.273,3.273,0,0,0-2.409,1.057c-.283.277-.386.483.06.737a5.206,5.206,0,0,1,2.471,3.11c.17.556.427.7.91.291a7.436,7.436,0,0,1,2.252-1.35c.445-.161.536-.442.449-.884a3.606,3.606,0,0,0-3.734-2.961m5.248,10.973c.9,0,1.626,0,2.347,0,.3,0,.441-.189.555-.429a6.023,6.023,0,0,0,.45-4.111.827.827,0,0,0-.729-.653,6.339,6.339,0,0,0-4.379.655c-.587.306-.808.637-.265,1.19a1.483,1.483,0,0,1,.325.589c.169.546.376.606.813.2a1.066,1.066,0,0,1,1.562.027,1.17,1.17,0,0,1,.1,1.636c-.191.26-.424.489-.781.9m-18.782-6.8c.906,0,1.814-.028,2.718.009.71.029.7-.252.411-.744a3.6,3.6,0,0,0-6.316.02c-.271.463-.269.741.393.722.931-.027,1.863-.007,2.794-.007m-30.44-22.117v0c-.377,0-.754-.006-1.13,0-1.619.03-1.458-.3-1.475,1.574,0,.461.187.623.63.616,1.03-.015,2.059,0,3.089,0,1.574,0,1.574,0,1.472-1.576a.676.676,0,0,1,0-.075c.019-.387-.178-.54-.55-.535-.678.008-1.356,0-2.034,0m5.164,28.927c.428,0,.856.009,1.284,0,.188-.006.453.089.53-.158a.584.584,0,0,0-.249-.66c-.365-.267-.747-.515-1.089-.808-.889-.763-.971-.766-1.7.181a3.45,3.45,0,0,0-.386.645c-.307.662-.225.793.477.8.377.006.755,0,1.132,0" transform="translate(-768.016 -23.098)" fill="#fff"/>
    <path id="Path_373" data-name="Path 373" d="M871.49,135.155a3.579,3.579,0,0,1,2.244-3.028,3.426,3.426,0,0,1,3.725.632,1.246,1.246,0,0,1,.334,1.791c-.42.558-1.076.6-1.8.127-1.047-.689-1.728-.416-2.093.839-.228.78-.756,1.179-1.4,1.06a1.278,1.278,0,0,1-1-1.42" transform="translate(-847.78 -106.918)" fill="#fff"/>
    <path id="Path_374" data-name="Path 374" d="M899.547,148.247c-1.465-.2-1.892-1.187-1.031-2.381a3.292,3.292,0,0,1,5.634.335,1.259,1.259,0,0,1-.347,1.725,1.2,1.2,0,0,1-1.652-.381c-.746-.9-1.143-.893-1.846.072a2.7,2.7,0,0,1-.744.621l-.014.009" transform="translate(-868.275 -116.634)" fill="#fff"/>
    <path id="Path_375" data-name="Path 375" d="M966.749,175.306a6.1,6.1,0,0,1-.9-.049,1.137,1.137,0,0,1-1.012-1.14,1.1,1.1,0,0,1,.932-1.194,4.33,4.33,0,0,1,1.943,0,1.117,1.117,0,0,1,.988,1.227,1.162,1.162,0,0,1-1.121,1.125,6.327,6.327,0,0,1-.828.006c0,.01,0,.02,0,.03" transform="translate(-919.739 -138.508)" fill="#fff"/>
    <path id="Path_376" data-name="Path 376" d="M916.137,175.272a2.638,2.638,0,0,1-1.113-.1,1.129,1.129,0,0,1-.763-1.172,1.085,1.085,0,0,1,.826-1.047,3.988,3.988,0,0,1,2.008-.047,1.138,1.138,0,0,1,1.015,1.269,1.169,1.169,0,0,1-1.146,1.09,6.128,6.128,0,0,1-.826.006" transform="translate(-880.751 -138.501)" fill="#fff"/>
    <path id="Path_377" data-name="Path 377" d="M946.863,109.073a3.431,3.431,0,0,1-2.236,2.228,1.187,1.187,0,0,1-1.062-1.758,4.559,4.559,0,0,1,1.465-1.5,1.129,1.129,0,0,1,1.283.006,1.233,1.233,0,0,1,.55,1.021" transform="translate(-903.225 -88.431)" fill="#fff"/>
  </g>
</svg>
