<svg xmlns="http://www.w3.org/2000/svg" width="24.18" height="21.178" viewBox="0 0 24.18 21.178">
  <g id="Group_2219" data-name="Group 2219" transform="translate(0)">
    <path id="Path_364" data-name="Path 364" d="M324.7,65.574c.021-.051.045-.1.064-.152a1.759,1.759,0,0,1,1.76-1.234q5.555,0,11.11,0c.357,0,.371,0,.354-.359a1.689,1.689,0,0,1,.511-1.434,1.6,1.6,0,0,1,2.686,1.13,1.647,1.647,0,0,0,.029.582c.081.179.338.087.513.149a1.864,1.864,0,0,1,1.153,1.1c.5,1.237,1.019,2.471,1.521,3.709a.77.77,0,0,0,.513.475c.882.286,1.761.583,2.64.877a1.778,1.778,0,0,1,1.326,1.838q0,1.616,0,3.232a1.8,1.8,0,0,1-1.808,1.841c-.393.008-.786.007-1.179,0-.171,0-.244.055-.283.231a2.993,2.993,0,0,1-5.855.01.254.254,0,0,0-.3-.241q-2.949.006-5.9,0a.261.261,0,0,0-.3.239,2.984,2.984,0,0,1-4.875,1.648,2.787,2.787,0,0,1-.973-1.629c-.042-.21-.136-.266-.333-.258a4.672,4.672,0,0,1-.754-.013,1.828,1.828,0,0,1-1.62-1.406V69.775c.142-.132.286-.254.5-.157s.226.276.225.475c0,.715.008,1.431-.007,2.146-.005.238.062.307.3.306q4.6-.012,9.2,0c.222,0,.3-.057.3-.289q-.011-3.515,0-7.029c0-.244-.075-.3-.31-.3-2.768.008-5.535,0-8.3.005a1.078,1.078,0,0,0-1.183,1.189q0,1.026,0,2.052c0,.2-.016.381-.222.479s-.359-.022-.5-.15Zm11.288,3.167v3.4c0,.4,0,.4.389.4h4.507a2.165,2.165,0,0,1,.259.006.336.336,0,0,1,.324.341.349.349,0,0,1-.3.386,1.694,1.694,0,0,1-.259.008c-1.549,0-3.1,0-4.648,0-.2,0-.277.051-.274.264.01.92.007,1.84,0,2.761,0,.17.032.26.232.259,1.093-.007,2.187-.005,3.28,0,.154,0,.216-.057.25-.211a2.994,2.994,0,0,1,5.864-.005.229.229,0,0,0,.27.216c.362-.007.724,0,1.085,0a1.063,1.063,0,0,0,1.171-1.168c0-.6,0-1.2,0-1.793,0-.314,0-.314-.307-.314H342.9a.555.555,0,0,1-.342-.06.37.37,0,0,1,.232-.681h2.265c.952,0,1.9,0,2.855,0,.174,0,.232-.055.232-.231a1.1,1.1,0,0,0-.831-1.168c-.879-.3-1.758-.592-2.64-.88a1.492,1.492,0,0,1-.976-.916c-.489-1.218-1.005-2.426-1.493-3.645a1.133,1.133,0,0,0-1.165-.775c-1.581,0-3.162,0-4.743,0-.3,0-.305,0-.305.319q0,1.746,0,3.492m-5.662,4.542h-4.646c-.125,0-.259-.024-.257.177.005.692-.016,1.384.01,2.075a1.026,1.026,0,0,0,1.094,1.024c.149,0,.3,0,.448,0,.361,0,.361,0,.447-.341A2.978,2.978,0,0,1,330.86,74a2.905,2.905,0,0,1,2.39,2.289c.055.211.136.28.347.274q.671-.021,1.344,0c.216.007.286-.063.283-.281q-.015-1.356,0-2.712c0-.228-.068-.294-.294-.292-1.533.009-3.066,0-4.6,0m.015,5.9a2.238,2.238,0,0,0,2.226-2.271,2.261,2.261,0,0,0-2.25-2.208,2.239,2.239,0,0,0,.024,4.479M342.69,74.7a2.241,2.241,0,1,0,2.24,2.248,2.274,2.274,0,0,0-2.24-2.248m-3.115-10.514c.235,0,.47,0,.705,0,.117,0,.174-.047.171-.167a2.842,2.842,0,0,0-.045-.678.839.839,0,0,0-1.626.008,2.893,2.893,0,0,0-.042.678c0,.127.068.16.179.159.219,0,.439,0,.658,0" transform="translate(-324.705 -58.766)" fill="#8cc04b"/>
    <path id="Path_365" data-name="Path 365" d="M539.521,15.669c0-.181-.007-.362,0-.542a.367.367,0,0,1,.733,0q.014.542,0,1.084a.367.367,0,1,1-.733,0c-.008-.18,0-.361,0-.542" transform="translate(-525 -14.765)" fill="#8cc04b"/>
    <path id="Path_366" data-name="Path 366" d="M512.759,23.487a.382.382,0,0,1-.228.331.327.327,0,0,1-.41-.078,3.944,3.944,0,0,1-.55-.982.367.367,0,0,1,.612-.343,4.432,4.432,0,0,1,.566,1,.276.276,0,0,1,.009.072" transform="translate(-498.925 -21.794)" fill="#8cc04b"/>
    <path id="Path_367" data-name="Path 367" d="M561.915,22.765a.446.446,0,0,1-.068.224c-.134.24-.266.482-.407.717a.38.38,0,0,1-.523.171.371.371,0,0,1-.139-.527c.142-.271.292-.539.453-.8a.345.345,0,0,1,.434-.146.355.355,0,0,1,.251.36" transform="translate(-544.771 -21.864)" fill="#8cc04b"/>
    <path id="Path_368" data-name="Path 368" d="M365.72,120.951c0,.181.005.362,0,.542a.651.651,0,0,1-.687.678c-.267,0-.535.005-.8,0a.641.641,0,0,1-.673-.593,7.969,7.969,0,0,1-.018-1.177c0-.207-.07-.278-.275-.27-.338.013-.676.008-1.014,0a.693.693,0,0,1-.756-.767c0-.228,0-.456,0-.684a.684.684,0,0,1,.738-.735c.346-.005.692-.012,1.037,0,.211.009.275-.073.268-.275-.012-.33-.009-.66,0-.99a.69.69,0,0,1,.79-.775c.244,0,.487,0,.731,0a.639.639,0,0,1,.661.653c.01.377.012.755,0,1.132-.007.2.071.259.261.253.353-.011.707-.008,1.061,0a.674.674,0,0,1,.736.667,3.855,3.855,0,0,1-.009.894.662.662,0,0,1-.7.624c-.369.009-.739.008-1.108,0-.169,0-.247.05-.237.229.011.2,0,.393,0,.589Zm-1.415-.4h0c0,.228,0,.456,0,.683,0,.142.055.2.2.193a1.2,1.2,0,0,1,.212,0c.191.021.245-.071.241-.249-.008-.4-.009-.8,0-1.2a.559.559,0,0,1,.636-.618c.377,0,.754-.012,1.131,0,.219.009.331-.051.3-.287a.58.58,0,0,1,0-.141c.016-.164-.057-.224-.219-.221-.385.007-.77,0-1.155,0-.487,0-.683-.2-.69-.69-.005-.377-.008-.754,0-1.131,0-.179-.052-.269-.242-.247a.886.886,0,0,1-.188,0c-.164-.016-.222.055-.219.218.008.408,0,.817,0,1.225a.554.554,0,0,1-.626.624c-.393,0-.786.011-1.178,0-.29-.01-.226.188-.236.352s0,.306.241.3c.408-.015.817-.01,1.225,0a.534.534,0,0,1,.573.577c0,.2,0,.408,0,.613" transform="translate(-359.006 -109.071)" fill="#8cc04b"/>
    <path id="Path_369" data-name="Path 369" d="M504.357,120.432q-1.168,0-2.336,0c-.56,0-.8-.232-.8-.783q0-1.486,0-2.973c0-.526.224-.751.743-.752q1.734,0,3.469,0a.64.64,0,0,1,.737.488q.616,1.519,1.225,3.041a.646.646,0,0,1-.658.979c-.794,0-1.589,0-2.383,0m-.028-.773c.691,0,1.382,0,2.073,0,.2,0,.249-.038.167-.237q-.526-1.273-1.027-2.557a.285.285,0,0,0-.317-.205q-1.484.009-2.968,0c-.188,0-.265.048-.263.25q.013,1.248,0,2.5c0,.2.073.255.262.253.691-.008,1.382,0,2.073,0" transform="translate(-489.293 -109.086)" fill="#8cc04b"/>
    <path id="Path_370" data-name="Path 370" d="M394.005,268.693a1.1,1.1,0,0,1-1.072,1.095,1.092,1.092,0,1,1,0-2.184,1.1,1.1,0,0,1,1.076,1.089m-.776.007a.3.3,0,0,0-.3-.32.323.323,0,0,0-.331.323.33.33,0,0,0,.324.31.3.3,0,0,0,.309-.313" transform="translate(-387.291 -250.517)" fill="#8cc04b"/>
    <path id="Path_371" data-name="Path 371" d="M575.682,267.6a1.092,1.092,0,1,1-1.091,1.1,1.112,1.112,0,0,1,1.091-1.1M576,268.69a.317.317,0,0,0-.634.008.317.317,0,1,0,.634-.008" transform="translate(-557.702 -250.516)" fill="#8cc04b"/>
  </g>
</svg>
