<svg id="Group_2221" data-name="Group 2221" xmlns="http://www.w3.org/2000/svg" width="22.493" height="22.128" viewBox="0 0 22.493 22.128">
  <path id="Path_394" data-name="Path 394" d="M1179.138,66.75q-4.709,0-9.418,0a1.787,1.787,0,0,1-1.831-1.838q0-5.06,0-10.12a1.781,1.781,0,0,1,1.254-1.748c.144-.05.21-.115.2-.273s0-.332,0-.5a1.109,1.109,0,0,1,1.137-1.129,23.388,23.388,0,0,1,4.2.437c.182.034.264.038.305-.2a4.2,4.2,0,0,1,8.29-.045c.047.291.046.285.341.231a26.411,26.411,0,0,1,3.072-.385c.384-.025.768-.045,1.153-.041a1.073,1.073,0,0,1,1.087,1.1c-.015.444.019.746.527.959a1.592,1.592,0,0,1,.93,1.585q0,5.06,0,10.12a1.8,1.8,0,0,1-1.845,1.847q-4.7,0-9.4,0m-9.045-8.72q0,2.785,0,5.57c0,.452.128.585.576.583a18.6,18.6,0,0,1,2.3.154,24.036,24.036,0,0,1,5.548,1.347c.235.088.237.085.237-.181,0-1.9,0-3.8,0-5.705,0-.222-.048-.312-.286-.3-.281.017-.438-.134-.44-.369s.155-.379.433-.381q.668,0,1.336,0c.278,0,.435.145.432.381a.366.366,0,0,1-.441.368c-.24-.014-.286.078-.286.3.008,1.9,0,3.8,0,5.705,0,.266,0,.266.244.176l.084-.033a23.957,23.957,0,0,1,5.667-1.329,20.728,20.728,0,0,1,2.166-.136c.341,0,.476-.14.5-.481,0-.06,0-.121,0-.181q0-5.479,0-10.958a1.907,1.907,0,0,0-.011-.271.406.406,0,0,0-.486-.386c-.406.027-.813.048-1.219.078a23.415,23.415,0,0,0-2.911.394.252.252,0,0,0-.234.25,4.057,4.057,0,0,1-1.543,2.749,1.888,1.888,0,0,0-.777,1.462,1.248,1.248,0,0,1-1.314,1.217c-.392,0-.785.006-1.177,0a1.223,1.223,0,0,1-1.188-1.145,1.962,1.962,0,0,0-.8-1.548,4.035,4.035,0,0,1-1.495-2.412c-.123-.559-.121-.551-.684-.648a26.793,26.793,0,0,0-3.595-.381c-.506-.018-.642.082-.642.586q0,2.762,0,5.524M1178.172,53c.055.078.085.129.123.174.339.405.673.814,1.02,1.212a.775.775,0,0,1,.2.554c-.01.679,0,1.358,0,2.037,0,.342.13.419.437.252a.473.473,0,0,0,.259-.422,2.645,2.645,0,0,1,1.059-2.034,3.312,3.312,0,0,0,1.251-3.213,3.433,3.433,0,1,0-5.495,3.243,2.587,2.587,0,0,1,1.034,2,.471.471,0,0,0,.4.477c.25.061.3.028.3-.227,0-.6-.008-1.207.005-1.81a.766.766,0,0,0-.2-.55c-.5-.585-.988-1.179-1.482-1.769a.423.423,0,0,1-.095-.479.4.4,0,0,1,.414-.213q1.731,0,3.462,0a.4.4,0,0,1,.427.228.409.409,0,0,1-.135.486c-.38.378-.756.759-1.137,1.135-.2.2-.4.216-.577.052s-.169-.383.04-.593c.168-.169.348-.327.522-.49l-.034-.047Zm3.2,13q3.519,0,7.039,0a1.106,1.106,0,0,0,1.214-1.228q0-1.9,0-3.8,0-3.022,0-6.043a1.184,1.184,0,0,0-.319-.89c-.09-.09-.2-.227-.314-.191s-.056.211-.056.323q-.005,4.8,0,9.6a1.118,1.118,0,0,1-1.109,1.182c-1.016.055-2.031.114-3.038.268a21.232,21.232,0,0,0-3.412.787m-4.471,0a17.023,17.023,0,0,0-2.125-.559,28.241,28.241,0,0,0-4.262-.495,1.119,1.119,0,0,1-1.175-1.275q0-4.754,0-9.507c0-.06,0-.121,0-.181.009-.152-.052-.173-.172-.1a1.071,1.071,0,0,0-.518.973q-.006,5,0,10.005a1.069,1.069,0,0,0,1.122,1.135c2.377.008,4.753,0,7.13,0" transform="translate(-1167.888 -44.623)" fill="#6ba324"/>
  <path id="Path_395" data-name="Path 395" d="M1368.186,22.512a.417.417,0,0,1-.137.335c-.315.315-.626.632-.945.943a.386.386,0,1,1-.536-.546c.312-.317.629-.629.946-.942a.374.374,0,0,1,.432-.105.365.365,0,0,1,.24.315" transform="translate(-1352.991 -20.668)" fill="#6ba324"/>
  <path id="Path_396" data-name="Path 396" d="M1329.423,1.114c0,.233,0,.467,0,.7a.376.376,0,1,1-.751,0q-.009-.711,0-1.422a.376.376,0,1,1,.751,0c.006.241,0,.481,0,.722" transform="translate(-1317.8 -0.001)" fill="#6ba324"/>
  <path id="Path_397" data-name="Path 397" d="M1277.185,23.882a.353.353,0,0,1-.261-.123c-.314-.315-.631-.627-.94-.947a.382.382,0,1,1,.535-.541c.323.316.641.639.958.962a.366.366,0,0,1,.074.438.36.36,0,0,1-.366.211" transform="translate(-1268.547 -20.638)" fill="#6ba324"/>
  <path id="Path_398" data-name="Path 398" d="M1360.507,241.843c.122,0,.2,0,.273,0a.365.365,0,0,1,.363.335.361.361,0,0,1-.305.41c-.29.043-.584.063-.877.09a24.06,24.06,0,0,0-4.566.878,1.419,1.419,0,0,1-.419.085c-.254,0-.41-.117-.442-.33a.391.391,0,0,1,.317-.43,24.511,24.511,0,0,1,2.411-.606,25.861,25.861,0,0,1,3.246-.431" transform="translate(-1341.915 -225.496)" fill="#6ba324"/>
  <path id="Path_399" data-name="Path 399" d="M1216.724,241.181a25.514,25.514,0,0,1,3.972.6c.55.129,1.1.278,1.636.44a.519.519,0,0,1,.332.216.368.368,0,0,1-.026.443.39.39,0,0,1-.444.14c-.508-.143-1.014-.293-1.525-.42a22.614,22.614,0,0,0-3.921-.633,2.423,2.423,0,0,1-.246-.034.379.379,0,1,1,.063-.755c.053,0,.105,0,.159,0" transform="translate(-1212.891 -224.88)" fill="#6ba324"/>
  <path id="Path_400" data-name="Path 400" d="M1360.57,214.38c.082,0,.135,0,.188,0a.368.368,0,0,1,.375.346.362.362,0,0,1-.315.4c-.26.041-.524.058-.786.082a23.851,23.851,0,0,0-4.824.955c-.379.116-.6.036-.674-.229-.069-.25.072-.406.454-.523a25.928,25.928,0,0,1,4.867-.978c.247-.026.5-.04.714-.057" transform="translate(-1341.904 -199.89)" fill="#6ba324"/>
  <path id="Path_401" data-name="Path 401" d="M1216.573,187.931a25.351,25.351,0,0,1,5.745,1.056c.26.079.375.214.361.423a.368.368,0,0,1-.322.355.551.551,0,0,1-.287-.042,24.611,24.611,0,0,0-4.086-.868c-.4-.051-.795-.073-1.192-.11-.1-.01-.211-.017-.314-.036a.378.378,0,0,1-.342-.447.389.389,0,0,1,.438-.332" transform="translate(-1212.87 -175.229)" fill="#6ba324"/>
  <path id="Path_402" data-name="Path 402" d="M1360.752,188.367a.391.391,0,0,1,.431.368c.012.238-.148.4-.435.417-.684.049-1.366.121-2.044.221a24.326,24.326,0,0,0-3.395.76c-.072.022-.145.042-.218.062a.371.371,0,0,1-.5-.243.382.382,0,0,1,.286-.488c.491-.146.984-.29,1.481-.413a26.253,26.253,0,0,1,4.327-.681l.068,0" transform="translate(-1341.955 -175.636)" fill="#6ba324"/>
  <path id="Path_403" data-name="Path 403" d="M1216.733,214.4a24.477,24.477,0,0,1,3.958.605c.527.127,1.049.275,1.572.42.3.084.433.27.367.5s-.274.33-.569.241a25.04,25.04,0,0,0-3.37-.762c-.693-.108-1.39-.17-2.087-.234-.338-.031-.482-.187-.455-.437.025-.233.19-.337.526-.33h.059" transform="translate(-1212.883 -199.913)" fill="#6ba324"/>
  <path id="Path_404" data-name="Path 404" d="M1216.783,150.53c.813.052,1.619.156,2.422.285.279.045.435.23.4.453s-.225.357-.513.323c-.494-.058-.985-.135-1.478-.2-.276-.034-.555-.049-.832-.077a1.915,1.915,0,0,1-.356-.056.378.378,0,0,1-.277-.435.384.384,0,0,1,.407-.317c.075,0,.15.012.225.019" transform="translate(-1212.884 -140.339)" fill="#6ba324"/>
  <path id="Path_405" data-name="Path 405" d="M1216.745,128.46c.425.047.852.086,1.276.145a.376.376,0,0,1,.361.41.371.371,0,0,1-.426.342c-.479-.031-.958-.076-1.436-.131a.371.371,0,0,1-.366-.424c.021-.211.177-.331.432-.332h.158v-.01" transform="translate(-1212.89 -119.778)" fill="#6ba324"/>
</svg>
