<svg xmlns="http://www.w3.org/2000/svg" width="22.833" height="20.516" viewBox="0 0 22.833 20.516">
  <g id="Group_2220" data-name="Group 2220" transform="translate(0)">
    <path id="Path_372" data-name="Path 372" d="M768.016,39.776a3.449,3.449,0,0,1,.976-1.815c.1-.1.08-.217.08-.334q0-4.646,0-9.292a2.438,2.438,0,0,1,.038-.51,1.571,1.571,0,0,1,1.287-1.257c.167-.029.241-.089.238-.272,0-.233.01-.438-.255-.57a.546.546,0,0,1-.227-.529c-.006-.475-.009-.951,0-1.426a.624.624,0,0,1,.674-.668q1.281-.011,2.562,0a.614.614,0,0,1,.653.661c.005.483,0,.966,0,1.448a.611.611,0,0,1-.341.6c-.167.08-.108.229-.11.353,0,.311-.049.337.306.416a1.556,1.556,0,0,1,1.218,1.533q.006.512,0,1.025c0,.145.037.2.2.168a1.541,1.541,0,0,1,.855.067.293.293,0,0,0,.322-.059,1.669,1.669,0,0,1,2.03-.067c.131.089.205.058.3-.04.443-.45.89-.9,1.337-1.342a.644.644,0,0,1,1.1.037,2.962,2.962,0,0,1,.553.883c.066.174.141.178.3.1a2.67,2.67,0,0,1,2.178-.142.553.553,0,0,1,.372.38,2.494,2.494,0,0,1,.139,1.182c-.022.12.024.162.145.147a1.789,1.789,0,0,1,1.94,1.517c.016.122.1.133.189.144a3.431,3.431,0,0,1,.764.139.624.624,0,0,1,.416.427,2.513,2.513,0,0,1,.016,1.554.3.3,0,0,0,.077.375.538.538,0,0,1,.17.467,8.221,8.221,0,0,1-.1,1.152c-.038.168.019.236.183.281a1.364,1.364,0,0,1,.73,1.129.685.685,0,0,1-.312.493,3.862,3.862,0,0,0-.555.427l.833-.149c.234-.041.466-.095.7-.12a.646.646,0,0,1,.768.543,3.072,3.072,0,0,1,.083.459.655.655,0,0,1-.581.762c-.495.1-.99.184-1.491.314.2.049.41.094.613.146a.694.694,0,0,1,.59.9c-.021.124-.033.251-.062.373a.663.663,0,0,1-.788.516q-1.139-.2-2.278-.411c-.308-.056-.308-.057-.324.255a1.554,1.554,0,0,1-1.357,1.43,6.537,6.537,0,0,1-.689.032q-6.373,0-12.745,0a3.782,3.782,0,0,1-2.864-1.169,3.49,3.49,0,0,1-.854-1.687Zm9.229-7.355c.616,0,1.232-.014,1.848-.01.15,0,.234-.038.268-.192a1.306,1.306,0,0,1,.244-.521.189.189,0,0,0-.007-.26,1.03,1.03,0,0,0-.637-.414c-.313-.069-.39-.153-.426-.458a.929.929,0,0,0-.719-.863.964.964,0,0,0-1.053.351.392.392,0,0,1-.6.106,1.01,1.01,0,0,0-.638-.148.972.972,0,0,0-.872,1.2c.073.352.047.418-.253.6a1.047,1.047,0,0,0-.267.233.885.885,0,0,0,0,1.159c.018-.069.039-.13.051-.193a.728.728,0,0,1,.614-.617,2.316,2.316,0,0,1,1.59.1c.332.162.595.211.856-.08l0,0m5.83-.007a.649.649,0,0,1,.448.692,3.291,3.291,0,0,1-.234,1.105c-.055.128-.051.2.108.233a.323.323,0,0,1,.255.349.334.334,0,0,1-.307.33,2.315,2.315,0,0,1-.354.023h-10.16c-.074,0-.149,0-.223,0-.126,0-.175.058-.164.179.017.2.03.4.052.6.011.1.038.172.18.164a.333.333,0,0,1,.38.323c.014.165.072.189.227.163a3.1,3.1,0,0,1,1.559.114,1,1,0,0,1,.633.492.534.534,0,0,0,.239.247,3.264,3.264,0,0,1,1.489,1.712c.078.207.161.246.355.159a4.7,4.7,0,0,1,.648-.236.338.338,0,0,1,.433.214.348.348,0,0,1-.2.442,1.476,1.476,0,0,1-.164.069c-.513.2-1.023.4-1.543.579-.2.068-.228.169-.185.345a2.737,2.737,0,0,1,.07.394.348.348,0,0,1-.287.392.329.329,0,0,1-.4-.242,1.817,1.817,0,0,1-.083-.368c-.016-.119-.064-.156-.177-.112-.4.156-.809.3-1.2.469a.866.866,0,0,0,.339,1.636c1.233.008,2.466,0,3.7.006.169,0,.205-.076.177-.222-.043-.226-.1-.451-.122-.679-.029-.252.078-.4.274-.438.214-.036.366.075.421.325q.091.413.161.83c.021.123.069.183.2.182q1.148,0,2.295,0c.122,0,.157-.045.13-.163-.031-.137-.05-.277-.074-.416a.374.374,0,0,1,.276-.481c.208-.042.376.093.43.35.036.174.071.349.1.525.017.124.071.186.2.184.252,0,.505,0,.757,0,.131,0,.169-.043.142-.173-.055-.276-.11-.553-.142-.833-.029-.256.094-.419.3-.444s.345.1.4.338c.064.3.123.6.171.9.024.151.084.215.245.218a.857.857,0,0,0,.93-1.1q-.3-1.743-.647-3.478a.839.839,0,0,0-1.224-.659c-.764.287-1.525.585-2.292.866a.216.216,0,0,0-.167.294,7.394,7.394,0,0,1,.126.745.324.324,0,0,1-.28.371.346.346,0,0,1-.405-.264,3.659,3.659,0,0,1-.081-.369c-.078-.409-.077-.41-.483-.284-.252.078-.441,0-.516-.2a.362.362,0,0,1,.264-.467c1.221-.466,2.439-.939,3.666-1.388a1.53,1.53,0,0,1,1.975.818c.062.129.111.147.23.076q.735-.442,1.477-.871a.375.375,0,0,0,.183-.263,10.539,10.539,0,0,0,.186-1.321c.018-.181-.043-.252-.233-.249-.564.009-1.129,0-1.693,0-.2,0-.4.007-.6-.008a.381.381,0,0,1-.4-.371.387.387,0,0,1,.416-.35.585.585,0,0,1,.089,0c.167.017.2-.073.19-.218a.819.819,0,0,0-.667-.741.506.506,0,0,1-.455-.507.837.837,0,0,0-1.364-.538M769.8,31.447c0,.572,0,1.143,0,1.715,0,.131.011.233.186.232.9,0,1.8,0,2.7,0a.58.58,0,0,0,.527-.563,1.514,1.514,0,0,1,.387-1.236.943.943,0,0,0,.32-.721,1.471,1.471,0,0,1,.416-1.007.244.244,0,0,0,.072-.263c-.044-.107-.152-.069-.236-.075-.111-.008-.223,0-.333-.016-.24-.031-.384-.171-.379-.36,0-.207.16-.34.41-.351.6-.027.6-.027.548-.637a1.849,1.849,0,0,0-.043-.264.831.831,0,0,0-.749-.631c-1.01-.011-2.019-.014-3.029,0a.826.826,0,0,0-.785.8c-.009.17,0,.342-.008.512s.068.229.237.226c.5-.008,1.01,0,1.515,0,.126,0,.253,0,.379,0a.356.356,0,0,1,.359.33.351.351,0,0,1-.316.366,1.79,1.79,0,0,1-.31.025c-.535,0-1.069.007-1.6,0-.19,0-.265.058-.261.255.01.557,0,1.114,0,1.67m2.52,11.438c.334,0,.668-.005,1,0,.166,0,.185-.038.119-.19a1.574,1.574,0,0,1,.145-1.624,1.8,1.8,0,0,1,.9-.616c.646-.242,1.29-.491,1.935-.734.112-.042.208-.076.151-.234a2.707,2.707,0,0,0-1.265-1.467c-.143-.081-.233.054-.344.1-.085.033-.052.105-.037.172a.62.62,0,0,1-.658.832,2.635,2.635,0,0,1-1.386-.427.31.31,0,0,0-.362,0,2.563,2.563,0,0,1-1.431.422.6.6,0,0,1-.622-.77c.046-.171.005-.236-.143-.3a.275.275,0,0,0-.292.01,5.073,5.073,0,0,0-.416.3,2.391,2.391,0,0,0-.906,1.973A2.626,2.626,0,0,0,770.54,42.7a5.172,5.172,0,0,0,1.782.18m-2.467-5.542a1.332,1.332,0,0,1,1.162-.768,3.636,3.636,0,0,1,.62-.052c.158,0,.223-.063.194-.215a9.664,9.664,0,0,1-.1-1.107.637.637,0,0,1,.495-.774.194.194,0,0,0,.148-.215c-.007-.135-.12-.084-.189-.085-.706,0-1.411,0-2.117-.006-.2,0-.272.061-.27.266.009.914,0,1.827,0,2.741a.3.3,0,0,0,.053.215m16.9,2.264a.364.364,0,0,1-.384-.228.333.333,0,0,1,.105-.4,2.05,2.05,0,0,1,.216-.157c.586-.392,1.17-.787,1.76-1.173.128-.084.118-.158.049-.273s-.136-.129-.251-.061q-1.08.644-2.167,1.278c-.091.053-.151.11-.128.229.135.706.265,1.414.4,2.121a.189.189,0,0,0,.178.166q1.27.225,2.538.46c.108.02.146-.022.174-.114.052-.167-.011-.243-.177-.28-.717-.159-1.431-.328-2.147-.489-.207-.047-.364-.138-.372-.374-.007-.2.124-.324.393-.373q1.487-.276,2.975-.548c.131-.024.221-.062.188-.23s-.138-.144-.25-.124l-1.312.242-1.782.328m-6.56-6.5h-2.359c-.282,0-.3.03-.252.312a2.9,2.9,0,0,0,.174.6c.168.4.167.394.6.4a.458.458,0,0,0,.408-.171,1.4,1.4,0,0,1,.239-.232.356.356,0,0,1,.6.238c.026.16.145.229.26.123a.4.4,0,0,1,.636,0c.063.062.195.1.209-.054a.383.383,0,0,1,.25-.38.378.378,0,0,1,.448.167.8.8,0,0,0,.818.312.259.259,0,0,0,.232-.136,2.932,2.932,0,0,0,.316-.92c.041-.21-.024-.259-.221-.257-.786.008-1.573,0-2.359,0m3.158-3.8a2.042,2.042,0,0,0-1.926,1.326c-.035.092-.108.193-.036.293a.5.5,0,0,0,.54.031c.222-.219.437-.444.663-.658a.363.363,0,0,1,.552-.029.375.375,0,0,1-.044.538c-.172.184-.348.366-.534.535a.222.222,0,0,0-.038.352c.118.168.194.049.291,0a1.052,1.052,0,0,1,.244-.106,1.02,1.02,0,0,0,.662-.446,1.7,1.7,0,0,0,.361-1.112c-.016-.682-.078-.7-.733-.726M772.11,23.831c-.341,0-.683.005-1.024,0-.154,0-.211.055-.208.208.008.3.006.608,0,.913,0,.138.043.2.191.2q1.024-.005,2.048,0c.142,0,.2-.057.2-.2,0-.3-.007-.609,0-.913.005-.171-.071-.217-.228-.213-.326.008-.653,0-.979,0M774.7,37.414a2.443,2.443,0,0,0-1.717-.026.583.583,0,0,1-.471.027,2.31,2.31,0,0,0-1.111-.162,1.4,1.4,0,0,0-.681.172,1.871,1.871,0,0,0,.529.154.365.365,0,0,1,.192.633c-.04.046-.116.071-.1.161a.414.414,0,0,0,.216-.027,2.758,2.758,0,0,0,.87-.435.406.406,0,0,1,.584,0,2.612,2.612,0,0,0,.871.433.308.308,0,0,0,.241.009.71.71,0,0,0-.061-.079c-.128-.12-.247-.243-.186-.441s.221-.239.393-.278a.912.912,0,0,0,.434-.145m.923-3a.389.389,0,0,0-.019-.087.349.349,0,0,1,.082-.494c.156-.124.323-.093.512.089.128.123.26.244.375.378.136.158.309.111.475.109a.06.06,0,0,0,.058-.093,3.394,3.394,0,0,0-.244-.64,1.862,1.862,0,0,0-1.807-.591.224.224,0,0,0-.183.167,1.785,1.785,0,0,0,.04,1.027c.025.074.062.134.154.134h.558m5.176-4.371a.166.166,0,0,0,.153-.068c.371-.427.39-.552.126-1.062-.071-.137-.163-.264-.247-.4s-.173-.145-.294-.018c-.41.428-.83.846-1.246,1.268a.374.374,0,0,0,.128.645,1.515,1.515,0,0,1,.726.564c.111.172.217.091.339.049.086-.03.149-.081.131-.178-.033-.173-.178-.079-.272-.105a.24.24,0,0,0-.044,0,.351.351,0,0,1-.052-.7,1.542,1.542,0,0,1,.553,0m4.272,1.134a.965.965,0,0,0-.711.312c-.083.082-.114.143.018.217a1.536,1.536,0,0,1,.729.917c.05.164.126.206.268.086a2.193,2.193,0,0,1,.664-.4c.131-.047.158-.13.132-.261a1.064,1.064,0,0,0-1.1-.873m1.548,3.237h.692c.089,0,.13-.056.164-.127a1.777,1.777,0,0,0,.133-1.213.244.244,0,0,0-.215-.193,1.87,1.87,0,0,0-1.292.193c-.173.09-.238.188-.078.351a.438.438,0,0,1,.1.174c.05.161.111.179.24.059a.314.314,0,0,1,.461.008.345.345,0,0,1,.03.483c-.056.077-.125.144-.23.264m-5.54-2.007c.267,0,.535-.008.8,0,.209.009.206-.074.121-.219a1.063,1.063,0,0,0-1.863.006c-.08.136-.079.219.116.213.275-.008.549,0,.824,0M772.1,25.883h0c-.111,0-.222,0-.333,0-.478.009-.43-.089-.435.464,0,.136.055.184.186.182.3,0,.607,0,.911,0,.464,0,.464,0,.434-.465a.193.193,0,0,1,0-.022c.006-.114-.052-.159-.162-.158-.2,0-.4,0-.6,0m1.523,8.533c.126,0,.253,0,.379,0,.055,0,.134.026.156-.047a.172.172,0,0,0-.074-.195c-.108-.079-.22-.152-.321-.238-.262-.225-.286-.226-.5.053a1.018,1.018,0,0,0-.114.19c-.09.2-.067.234.141.237.111,0,.223,0,.334,0" transform="translate(-768.016 -23.098)" fill="#8cc04b"/>
    <path id="Path_373" data-name="Path 373" d="M871.488,132.812a1.056,1.056,0,0,1,.662-.893,1.011,1.011,0,0,1,1.1.186.367.367,0,0,1,.1.528c-.124.165-.317.178-.531.037-.309-.2-.51-.123-.617.247-.067.23-.223.348-.414.313a.377.377,0,0,1-.3-.419" transform="translate(-864.494 -124.483)" fill="#8cc04b"/>
    <path id="Path_374" data-name="Path 374" d="M898.509,145.559c-.432-.059-.558-.35-.3-.7a.971.971,0,0,1,1.662.1.371.371,0,0,1-.1.509.353.353,0,0,1-.487-.112c-.22-.266-.337-.263-.545.021a.8.8,0,0,1-.219.183l0,0" transform="translate(-889.285 -136.234)" fill="#8cc04b"/>
    <path id="Path_375" data-name="Path 375" d="M965.4,173.546a1.8,1.8,0,0,1-.266-.015.335.335,0,0,1-.3-.336.325.325,0,0,1,.275-.352,1.277,1.277,0,0,1,.573,0,.329.329,0,0,1,.291.362.343.343,0,0,1-.331.332,1.865,1.865,0,0,1-.244,0s0,.006,0,.009" transform="translate(-951.533 -162.692)" fill="#8cc04b"/>
    <path id="Path_376" data-name="Path 376" d="M914.813,173.53a.778.778,0,0,1-.328-.029.333.333,0,0,1-.225-.346.32.32,0,0,1,.244-.309,1.176,1.176,0,0,1,.592-.014.336.336,0,0,1,.3.374.345.345,0,0,1-.338.322,1.808,1.808,0,0,1-.244,0" transform="translate(-904.374 -162.683)" fill="#8cc04b"/>
    <path id="Path_377" data-name="Path 377" d="M944.43,108.21a1.012,1.012,0,0,1-.659.657.35.35,0,0,1-.313-.519,1.345,1.345,0,0,1,.432-.441.333.333,0,0,1,.378,0,.364.364,0,0,1,.162.3" transform="translate(-931.558 -102.122)" fill="#8cc04b"/>
  </g>
</svg>
