<svg xmlns="http://www.w3.org/2000/svg" width="20.668" height="19.299" viewBox="0 0 20.668 19.299">
  <g id="Group_2223" data-name="Group 2223" transform="translate(0)">
    <path id="Path_385" data-name="Path 385" d="M1989.688,170.676c-.315,0-.63,0-.946,0s-.432-.12-.434-.427c0-.473-.007-.946,0-1.418,0-.17-.054-.225-.222-.221-.466.009-.931,0-1.4,0-.328,0-.446-.115-.448-.435q0-.956,0-1.913c0-.311.12-.432.427-.434.473,0,.946-.007,1.418,0,.169,0,.225-.053.222-.222-.009-.465,0-.931,0-1.4,0-.328.115-.447.434-.448q.957,0,1.913,0c.319,0,.433.12.434.448,0,.466.007.931,0,1.4,0,.169.053.225.222.222.465-.009.931,0,1.4,0,.327,0,.447.116.448.434q0,.956,0,1.913c0,.318-.121.433-.448.434-.466,0-.931.007-1.4,0-.17,0-.225.053-.221.222.009.465,0,.931,0,1.4,0,.334-.116.446-.456.448-.315,0-.63,0-.946,0m-.661-1.651c0,.236.007.473,0,.709-.007.162.038.235.216.227.307-.013.616-.01.924,0,.158,0,.214-.049.211-.209-.008-.48,0-.96,0-1.439,0-.294.125-.415.421-.417.473,0,.946-.006,1.418,0,.162,0,.235-.038.228-.216-.012-.307-.01-.616,0-.924,0-.158-.049-.215-.209-.212-.48.008-.96,0-1.439,0-.294,0-.416-.125-.417-.421,0-.473-.006-.945,0-1.418,0-.162-.038-.235-.216-.228-.307.013-.616.01-.923,0-.158,0-.215.049-.212.209.008.48,0,.96,0,1.439,0,.294-.125.415-.421.417-.473,0-.945.006-1.418,0-.162,0-.234.038-.227.216.013.307.01.616,0,.923,0,.158.049.214.209.212.479-.008.959,0,1.439,0,.294,0,.414.125.417.421,0,.236,0,.473,0,.709" transform="translate(-1979.365 -157.572)" fill="#8cc04b"/>
    <path id="Path_386" data-name="Path 386" d="M1894.288,309.344c-.531,0-1.061-.007-1.591,0a4.446,4.446,0,0,1-2.032-.47c-.768-.371-1.538-.738-2.3-1.116a4.8,4.8,0,0,0-2.076-.478c-.451-.008-.9,0-1.354,0-.3,0-.456-.126-.453-.364s.155-.358.441-.353c.708.015,1.418-.043,2.126.038a5.164,5.164,0,0,1,1.656.506c.813.392,1.625.787,2.439,1.177a3.744,3.744,0,0,0,1.607.339c1.089.01,2.178,0,3.268,0a.847.847,0,0,0,.333-.066c.88-.365,1.759-.733,2.643-1.087a.276.276,0,0,0,.194-.347.629.629,0,0,0-.63-.539,3.566,3.566,0,0,0-1.266.2c-.213.061-.422.14-.635.2a.359.359,0,0,1-.44-.212.324.324,0,0,1,.154-.44,4.6,4.6,0,0,1,2.481-.448,1.342,1.342,0,0,1,1.047,1.619.752.752,0,0,1-.463.577q-1.471.6-2.94,1.214a.8.8,0,0,1-.316.046h-1.892" transform="translate(-1884.48 -290.047)" fill="#8cc04b"/>
    <path id="Path_387" data-name="Path 387" d="M1967.274,72.131c.537,0,1.075.006,1.612,0a4.376,4.376,0,0,1,1.971.453c.775.372,1.551.742,2.321,1.126a4.82,4.82,0,0,0,2.1.485c.459.008.917,0,1.376,0,.269,0,.42.127.425.348s-.148.373-.427.367c-.716-.015-1.433.045-2.147-.039a5.172,5.172,0,0,1-1.656-.508q-1.2-.58-2.4-1.161a3.816,3.816,0,0,0-1.647-.352c-1.089-.009-2.178,0-3.268,0a.8.8,0,0,0-.313.06c-.886.368-1.772.738-2.663,1.1a.268.268,0,0,0-.19.329.629.629,0,0,0,.637.554,3.594,3.594,0,0,0,1.265-.2c.213-.062.422-.14.635-.2a.358.358,0,0,1,.436.22.327.327,0,0,1-.162.438,4.705,4.705,0,0,1-2.44.451,1.346,1.346,0,0,1-1.082-1.633.756.756,0,0,1,.469-.572q1.452-.6,2.9-1.2a.9.9,0,0,1,.357-.06c.631,0,1.261,0,1.892,0" transform="translate(-1956.407 -72.129)" fill="#8cc04b"/>
    <path id="Path_388" data-name="Path 388" d="M2035.1,101.622h-.021a9.416,9.416,0,0,0-2.374.254,3.25,3.25,0,0,1-3.461-1.5.434.434,0,0,0-.225-.185c-.583-.241-1.165-.481-1.745-.728a2.855,2.855,0,0,1-1.281-.943,1.9,1.9,0,0,1-.135-1.96c.093-.216.289-.264.551-.157.643.263,1.284.531,1.926.8q.9.375,1.805.751a.869.869,0,0,1,.208.11.331.331,0,0,1,.119.4.338.338,0,0,1-.346.237.871.871,0,0,1-.328-.1c-1.059-.438-2.119-.874-3.175-1.321-.185-.078-.214-.028-.218.147a1.236,1.236,0,0,0,.687,1.112,10.917,10.917,0,0,0,1.449.649c.315.138.634.267.954.393a.61.61,0,0,1,.336.31,2.293,2.293,0,0,0,1.94,1.269,3.449,3.449,0,0,0,1.627-.208.706.706,0,0,1,.25-.049q1.376-.005,2.752,0a.346.346,0,0,1,.38.349.353.353,0,0,1-.385.367c-.05,0-.1,0-.151,0H2035.1" transform="translate(-2016.107 -94.71)" fill="#8cc04b"/>
    <path id="Path_389" data-name="Path 389" d="M1886.146,251.041c.057,0,.115,0,.172,0a8.423,8.423,0,0,0,2.243-.264,3.268,3.268,0,0,1,3.441,1.507.464.464,0,0,0,.244.2c.583.241,1.165.481,1.746.728a2.808,2.808,0,0,1,1.275.951,1.9,1.9,0,0,1,.126,1.943c-.093.217-.289.267-.55.161-.7-.286-1.389-.576-2.084-.865l-1.687-.7a.48.48,0,0,1-.268-.2.334.334,0,0,1,.041-.4.367.367,0,0,1,.45-.094c.4.16.8.325,1.193.49l2.123.883c.224.093.23.086.234-.162a1.226,1.226,0,0,0-.687-1.089,10.579,10.579,0,0,0-1.429-.642c-.328-.143-.66-.278-.993-.41a.558.558,0,0,1-.306-.283,2.319,2.319,0,0,0-1.972-1.292,3.484,3.484,0,0,0-1.6.213.737.737,0,0,1-.25.049q-1.376.005-2.752,0a.347.347,0,0,1-.378-.305.34.34,0,0,1,.234-.389.626.626,0,0,1,.212-.021c.409,0,.817,0,1.226,0" transform="translate(-1884.471 -238.655)" fill="#8cc04b"/>
    <path id="Path_390" data-name="Path 390" d="M1930.159,153.234a7.281,7.281,0,0,1,1.281-4.292c.032-.047.065-.095.1-.14.176-.233.384-.286.568-.146a.376.376,0,0,1,.031.57,6.477,6.477,0,0,0-1.25,3.726,6.869,6.869,0,0,0,.132,1.429.368.368,0,0,1-.286.471.375.375,0,0,1-.435-.344,6.1,6.1,0,0,1-.141-1.272" transform="translate(-1927.069 -143.412)" fill="#8cc04b"/>
    <path id="Path_391" data-name="Path 391" d="M2115.555,190.29a7.315,7.315,0,0,1-1.349,4.407c-.083.117-.162.241-.321.267a.341.341,0,0,1-.373-.154.368.368,0,0,1,.027-.442,6.653,6.653,0,0,0,.633-1.047,6.466,6.466,0,0,0,.547-3.975c-.009-.049-.014-.1-.021-.149a.379.379,0,0,1,.3-.482c.2-.031.369.115.419.367a5.949,5.949,0,0,1,.135,1.206" transform="translate(-2097.975 -180.833)" fill="#8cc04b"/>
    <path id="Path_392" data-name="Path 392" d="M1966.344,133.55a.373.373,0,0,1-.367-.37.45.45,0,0,1,.419-.41.385.385,0,0,1,.359.36.459.459,0,0,1-.411.421" transform="translate(-1960.468 -128.671)" fill="#8cc04b"/>
    <path id="Path_393" data-name="Path 393" d="M2099.075,286.4a.417.417,0,0,1-.383.391.373.373,0,0,1-.371-.369.4.4,0,0,1,.4-.374.356.356,0,0,1,.358.352" transform="translate(-2083.867 -271.587)" fill="#8cc04b"/>
  </g>
</svg>
