<svg xmlns="http://www.w3.org/2000/svg" width="19.803" height="19.81" viewBox="0 0 19.803 19.81">
  <g id="Group_2222" data-name="Group 2222" transform="translate(0)">
    <path id="Path_383" data-name="Path 383" d="M1574.9,78.145q-1.067-.168-2.133-.336t-2.117-.325a2.363,2.363,0,0,0-.345-.025c-.812,0-1.623,0-2.435,0-.428,0-.558-.128-.558-.548q0-2.657,0-5.314c0-.4.133-.533.531-.533.689,0,1.379-.022,2.067.008a4.773,4.773,0,0,0,1.267-.216,5.943,5.943,0,0,1,.837-.138.3.3,0,0,0,.219-.137,3.368,3.368,0,0,1,2.142-1.233,3.548,3.548,0,0,1,.962-.011.265.265,0,0,0,.226-.069,3.073,3.073,0,0,1,1.48-.709c.12-.023.165-.069.163-.188-.018-1.049.053-2.1-.038-3.147a2.779,2.779,0,0,0-1.333-2.154.315.315,0,0,0-.274-.028c-.53.132-1.049.313-1.591.4a3.545,3.545,0,0,1-3.9-2.464c-.149-.506-.278-1.018-.411-1.529-.088-.34.013-.524.348-.609.6-.153,1.2-.358,1.815-.458a3.543,3.543,0,0,1,3.749,2.063,14.268,14.268,0,0,1,.5,1.684.4.4,0,0,0,.188.252,3.554,3.554,0,0,1,1.241,1.273c.08.139.124.153.211,0a3.574,3.574,0,0,1,1.257-1.284.37.37,0,0,0,.172-.242q.152-.579.311-1.156a3.545,3.545,0,0,1,4.314-2.519c.493.125.983.259,1.473.394a.41.41,0,0,1,.324.557c-.134.517-.262,1.036-.419,1.547a3.54,3.54,0,0,1-3.727,2.511,9.218,9.218,0,0,1-1.65-.4.541.541,0,0,0-.517.087,2.875,2.875,0,0,0-1.236,2.375c-.021.933,0,1.868-.008,2.8,0,.151.047.206.2.237a3.058,3.058,0,0,1,1.792,1.061.212.212,0,0,0,.25.078,3.055,3.055,0,0,1,2.85.668,2.882,2.882,0,0,1,.885,1.313c.052.155.112.167.246.107.289-.127.578-.254.875-.359a1.516,1.516,0,0,1,1.929.891l.084.216V73.2a1.614,1.614,0,0,1-.9,1.074c-.326.139-.652.277-.981.408a.409.409,0,1,1-.3-.755c.308-.131.62-.253.926-.389a.706.706,0,0,0,.4-.955.721.721,0,0,0-.963-.351q-2.212.918-4.422,1.841c-.113.047-.138.094-.093.216a1.448,1.448,0,0,1-.108,1.265c-.022.04-.077.076-.026.154l.939-.386a.494.494,0,0,1,.3-.059.389.389,0,0,1,.335.329.375.375,0,0,1-.236.439c-.507.221-1.015.445-1.531.643a17.67,17.67,0,0,1-4.232,1.476Zm4.331-1.885c-.105-.028-.212-.052-.315-.086-.925-.3-1.851-.594-2.774-.9a4.1,4.1,0,0,0-1.8-.329h-.019a.428.428,0,0,1-.43-.389.393.393,0,0,1,.37-.42,3.346,3.346,0,0,1,1.244.072c1.186.392,2.375.772,3.563,1.158a.808.808,0,0,0,.6.019.621.621,0,0,0,.389-.576.65.65,0,0,0-.395-.614c-1.262-.657-2.517-1.329-3.786-1.972a6.675,6.675,0,0,0-5.121-.4,1.343,1.343,0,0,1-.4.062c-.683,0-1.366,0-2.048,0-.151,0-.218.05-.2.2a.314.314,0,0,1,0,.039c0,1.423,0,2.847,0,4.27,0,.189.059.241.242.238.592-.01,1.185,0,1.778,0a2.612,2.612,0,0,1,.386.01q1.927.292,3.852.593a6.532,6.532,0,0,0,2.207.026,13.4,13.4,0,0,0,2.659-1m-5.932-5.594c.112.02.174.036.237.041a7.37,7.37,0,0,1,2.812.834q1.789.933,3.573,1.875a.361.361,0,0,0,.343.017c.931-.391,1.866-.774,2.8-1.161.231-.1.231-.1.142-.341a2.3,2.3,0,0,0-3.015-1.355.441.441,0,0,1-.652-.2,2.251,2.251,0,0,0-.373-.441,2.3,2.3,0,0,0-3.223.1.514.514,0,0,1-.489.156,3.11,3.11,0,0,0-.362-.055,2.609,2.609,0,0,0-1.791.537m1.8-8.962a4.251,4.251,0,0,0-.4-1.189,2.745,2.745,0,0,0-2.611-1.349,12.082,12.082,0,0,0-1.425.334c-.1.024-.126.083-.1.186.1.346.178.7.286,1.041a2.769,2.769,0,0,0,3.82,1.676c-.261-.152-.511-.292-.756-.442a.4.4,0,1,1,.405-.7c.253.138.5.283.782.442m5.017-.013c.077-.041.144-.074.209-.111.19-.109.375-.227.569-.327a.406.406,0,1,1,.378.717c-.24.145-.484.284-.738.432a2.969,2.969,0,0,0,1.425.24,2.649,2.649,0,0,0,2.366-1.848c.134-.361.2-.744.312-1.115.037-.126-.021-.161-.121-.187-.38-.1-.758-.2-1.141-.29a2.233,2.233,0,0,0-.536-.055,2.809,2.809,0,0,0-2.724,2.543" transform="translate(-1567.307 -58.335)" fill="#8cc04b"/>
  </g>
</svg>
