<svg xmlns="http://www.w3.org/2000/svg" width="17.249" height="21.002" viewBox="0 0 17.249 21.002">
  <g id="Group_2218" data-name="Group 2218" transform="translate(0)">
    <path id="Path_378" data-name="Path 378" d="M116.666,15.277a.773.773,0,0,1,.243.245,50.445,50.445,0,0,1,3.842,7.136,8.61,8.61,0,0,1,.632,2.008,4.484,4.484,0,0,1-.8,3.343,4.817,4.817,0,0,1-4.532,2.15,4.942,4.942,0,0,1-4.278-3.492.452.452,0,0,1,.246-.611c.259-.086.48.056.584.365a3.964,3.964,0,0,0,3.311,2.844,3.993,3.993,0,0,0,4.363-5.432,30.147,30.147,0,0,0-2-4.282c-.522-.968-1.079-1.916-1.653-2.854-.115-.187-.119-.189-.23,0a46.633,46.633,0,0,0-3.485,6.653.456.456,0,0,1-.475.344.441.441,0,0,1-.378-.353.642.642,0,0,1,.077-.375,28.807,28.807,0,0,1,1.364-2.934c.8-1.519,1.663-3,2.572-4.452a.836.836,0,0,1,.276-.3Z" transform="translate(-104.19 -15.277)" fill="#8cc04b"/>
    <path id="Path_379" data-name="Path 379" d="M2.885,123.833a2.877,2.877,0,0,1-2.879-3.079A3.833,3.833,0,0,1,.382,119.5a23.1,23.1,0,0,1,2.107-3.67.434.434,0,0,1,.775-.018,23.442,23.442,0,0,1,2.27,4.045A2.859,2.859,0,0,1,3.313,123.8c-.141.02-.285.023-.428.034m.015-.86c.117-.016.281-.029.44-.063a1.986,1.986,0,0,0,1.406-2.691,20.843,20.843,0,0,0-1.779-3.291c-.066-.1-.107-.1-.168,0-.163.268-.337.53-.5.8a16.358,16.358,0,0,0-1.263,2.455A1.969,1.969,0,0,0,.86,121,2.046,2.046,0,0,0,2.9,122.974" transform="translate(0 -108.807)" fill="#8cc04b"/>
    <path id="Path_380" data-name="Path 380" d="M75.571,225.951a2.6,2.6,0,0,1-2.7-3.132,10.372,10.372,0,0,1,1.087-2.379c.283-.5.591-.983.9-1.467a.44.44,0,0,1,.816,0,20.208,20.208,0,0,1,1.838,3.378,2.5,2.5,0,0,1-.2,2.444,2.341,2.341,0,0,1-1.745,1.159m1.315-2.586a2.676,2.676,0,0,0-.187-.731,16.792,16.792,0,0,0-1.225-2.359c-.2-.342-.21-.342-.415,0a16.242,16.242,0,0,0-1.277,2.493,1.623,1.623,0,0,0,.114,1.474,1.535,1.535,0,0,0,1.4.847,1.714,1.714,0,0,0,1.588-1.725" transform="translate(-67.874 -204.949)" fill="#8cc04b"/>
    <path id="Path_381" data-name="Path 381" d="M179.628,156.983a3.3,3.3,0,0,1-2.712,3.09,2.842,2.842,0,0,1-.55.042.416.416,0,0,1-.453-.4.411.411,0,0,1,.425-.447,2.589,2.589,0,0,0,1.515-.544,2.492,2.492,0,0,0,.925-1.825c.029-.356.183-.516.459-.5s.395.2.393.541c0,.014,0,.027,0,.041" transform="translate(-164.024 -146.862)" fill="#8cc04b"/>
    <path id="Path_382" data-name="Path 382" d="M110.043,150.77a.423.423,0,1,1-.422-.428.412.412,0,0,1,.422.428" transform="translate(-101.817 -141.214)" fill="#8cc04b"/>
  </g>
</svg>
