<svg xmlns="http://www.w3.org/2000/svg" xmlns:xlink="http://www.w3.org/1999/xlink" width="167.714" height="35.195" viewBox="0 0 167.714 35.195">
  <defs>
    <clipPath id="clip-path">
      <rect id="Rectangle_2" data-name="Rectangle 2" width="167.714" height="35.195" fill="none"/>
    </clipPath>
  </defs>
  <g id="Group_1" data-name="Group 1" clip-path="url(#clip-path)">
    <path id="Path_1" data-name="Path 1" d="M.218,15.085a2.632,2.632,0,0,1,.15.248,6.608,6.608,0,0,0,2.046,2.561q1.323,1.07,2.647,2.144a10.635,10.635,0,0,1,1.111,1.025A4.538,4.538,0,0,1,7.449,23.5a4.811,4.811,0,0,0,.424-.882c.056-.124-.023-.244-.071-.36a6.251,6.251,0,0,0-.946-1.521,16.236,16.236,0,0,0-1.682-1.727c-.8-.736-1.611-1.461-2.414-2.2A10.747,10.747,0,0,1,.856,14.6a4.243,4.243,0,0,1-.725-2.5A2.3,2.3,0,0,1,.413,10.97a.3.3,0,0,1,.124.206A5.815,5.815,0,0,0,1.7,13.159a22.656,22.656,0,0,0,2.478,2.4c.668.578,1.34,1.149,1.964,1.78.308.315.612.638.9.972a5.185,5.185,0,0,1,1.419,3.33,6.256,6.256,0,0,1,5.376-2.489,6.2,6.2,0,0,1,5.238,2.654,5.967,5.967,0,0,1,3.413-2.211,5.586,5.586,0,0,1,6.7,3.379,8.611,8.611,0,0,1,.608,3.233c.019,2.823.008,5.643.008,8.466a2.286,2.286,0,0,1-.038.424.649.649,0,0,1-.706.619q-1.656.017-3.311-.008c-.469-.008-.646-.184-.668-.672-.026-.631-.023-1.262-.023-1.892q0-3.171,0-6.338a3.6,3.6,0,0,0-.24-1.434,2.312,2.312,0,0,0-.916-1.111,1.733,1.733,0,0,0-2.673,1.021,5.883,5.883,0,0,0-.176,1.641q-.006,3.762-.008,7.52a4.772,4.772,0,0,1-.03.612.543.543,0,0,1-.514.526c-.188.019-.375.041-.563.045q-1.4.006-2.79,0a1.708,1.708,0,0,1-.514-.06.674.674,0,0,1-.522-.6A4.776,4.776,0,0,1,16.1,34.4c-.008-2.6-.019-5.2.038-7.806a4.535,4.535,0,0,0-.18-1.539,2.884,2.884,0,0,0-.27-.6,1.231,1.231,0,0,0-1.235-.619,2.4,2.4,0,0,0-2.335,2.339c-.023.282-.015.567-.019.852q-.006,3.762,0,7.52c0,.909-.131,1.059-1.021,1.07-.976.015-1.956.011-2.932.011a1.631,1.631,0,0,1-.466-.056.678.678,0,0,1-.522-.6,4.091,4.091,0,0,1-.023-.567c0-3.011.015-6.022.011-9.033a2.551,2.551,0,0,0-.436-1.28,7.209,7.209,0,0,0-1.344-1.577c-.638-.586-1.333-1.108-2.009-1.652A20.7,20.7,0,0,1,1.4,19.14,5.335,5.335,0,0,1,.278,17.518a3.115,3.115,0,0,1-.06-2.433" transform="translate(0 -6.851)" fill="#8cc540"/>
    <path id="Path_2" data-name="Path 2" d="M95.584,43.009h-4.3c-.109,0-.222,0-.33,0-.319.015-.349.053-.27.375a2.821,2.821,0,0,0,.811,1.415,3.636,3.636,0,0,0,2.726.987,5.236,5.236,0,0,0,3.229-1.168,2.332,2.332,0,0,1,.27-.191.522.522,0,0,1,.695.041,15.159,15.159,0,0,1,1.761,1.911c.293.39.222.743-.188,1.13a8.288,8.288,0,0,1-13.9-4.374,8.042,8.042,0,0,1,5.744-9.608,7.832,7.832,0,0,1,9.8,8.294,4.08,4.08,0,0,1-.068.421.731.731,0,0,1-.695.661,8.141,8.141,0,0,1-1.318.109c-1.325,0-2.647,0-3.972,0Zm-4.7-3.634c1.179.09,5.793.049,6.131-.053a3.3,3.3,0,0,0-3.334-2.189,3.388,3.388,0,0,0-2.8,2.241" transform="translate(-53.65 -20.748)" fill="#8cc540"/>
    <path id="Path_3" data-name="Path 3" d="M217.69,44.792a1.333,1.333,0,0,0,.237-.537q1.605-4.646,3.206-9.292c.252-.732.387-.826,1.168-.83.995,0,1.986-.008,2.981,0,.95.011,1.19.368.834,1.254q-2.213,5.53-4.434,11.053c-1.247,3.116-2.508,6.225-3.687,9.368a.887.887,0,0,1-.995.695c-.882,0-1.765,0-2.651,0-.95,0-1.3-.484-.957-1.367.582-1.513,1.156-3.034,1.753-4.539a1.216,1.216,0,0,0-.019-.991q-2.85-6.955-5.673-13.918a4.794,4.794,0,0,1-.2-.529.73.73,0,0,1,.631-1,2.282,2.282,0,0,1,.424-.03c.931,0,1.862-.008,2.79,0,.642,0,.822.128,1.044.747q1.138,3.2,2.268,6.416c.345.98.687,1.964,1.033,2.944a1.98,1.98,0,0,0,.252.552" transform="translate(-130.66 -21.315)" fill="#8cc540"/>
    <path id="Path_4" data-name="Path 4" d="M179.536,50.1a8.31,8.31,0,1,1,4.648-15.18.992.992,0,0,1,.372,1.528c-.345.6-.695,1.2-1.055,1.791a.928.928,0,0,1-1.5.372,5.315,5.315,0,0,0-2-.8,3.344,3.344,0,0,0-3.465,1.614,4.287,4.287,0,0,0-.109,4.494,3.427,3.427,0,0,0,4,1.641,5.9,5.9,0,0,0,1.329-.6,3.572,3.572,0,0,1,.458-.244.8.8,0,0,1,1.1.342q.71,1.059,1.4,2.136c.353.548.312.788-.225,1.19a8.693,8.693,0,0,1-3.5,1.577,7.591,7.591,0,0,1-1.438.139" transform="translate(-106.953 -20.908)" fill="#8cc540"/>
    <path id="Path_5" data-name="Path 5" d="M382.2,43a.465.465,0,0,0,0,.338,6.077,6.077,0,0,0,3.15,3.89A5.088,5.088,0,0,0,390.574,47a10.37,10.37,0,0,0,1.063-.788c.462-.368.612-.353.969.1.237.3.466.6.683.9.281.394.255.578-.109.886a8.265,8.265,0,1,1,.484-12.165,7.488,7.488,0,0,1,2.215,4.791,11.373,11.373,0,0,1,.071,1.558c-.019.578-.161.721-.743.725-2.745,0-5.485,0-8.23,0h-4.3C382.52,43,382.363,43,382.2,43m.008-2.459h10.869c.424,0,.435-.015.342-.424a4.9,4.9,0,0,0-1.528-2.606,5.934,5.934,0,0,0-4.385-1.524,5.751,5.751,0,0,0-5.253,4.13.608.608,0,0,0-.045.424" transform="translate(-236.984 -20.943)" fill="#8cc540"/>
    <path id="Path_6" data-name="Path 6" d="M296.653,43.013a.8.8,0,0,0,.06.473,5.9,5.9,0,0,0,4.873,4.273,4.81,4.81,0,0,0,3.424-.773c.357-.229.687-.5,1.025-.758.563-.432.653-.421,1.1.15.214.274.424.548.623.834.259.372.229.559-.105.852a8.3,8.3,0,1,1-6.758-14.455,8.331,8.331,0,0,1,5.763,1.156,7.373,7.373,0,0,1,3.646,5.872c.053.567.09,1.13.09,1.7,0,.484-.131.619-.6.642-.188.008-.379,0-.567,0H297.209a1.969,1.969,0,0,0-.556.03M307.939,40.5a4.733,4.733,0,0,0-1.307-2.73,5.838,5.838,0,0,0-4.551-1.81,5.73,5.73,0,0,0-5.361,4.168.428.428,0,0,0-.011.372Z" transform="translate(-183.563 -20.925)" fill="#8cc540"/>
    <path id="Path_7" data-name="Path 7" d="M139.321,35.65a.892.892,0,0,0,.417-.327c.188-.191.372-.387.556-.582a3.948,3.948,0,0,1,3.668-1.171,5.577,5.577,0,0,1,1.952.68,13.045,13.045,0,0,1,1.449.976.764.764,0,0,1,.259,1.149c-.387.7-.788,1.4-1.213,2.084a1,1,0,0,1-1.543.282c-.176-.131-.342-.282-.522-.405a2.891,2.891,0,0,0-2.294-.469,2.82,2.82,0,0,0-2.084,2.414c-.011.222,0,.443,0,.661q0,3.762,0,7.52a3.347,3.347,0,0,1-.075.8.633.633,0,0,1-.544.514,2.283,2.283,0,0,1-.424.034c-.916,0-1.828.007-2.745,0-.77-.008-1.051-.293-1.051-1.066q-.006-6.882-.007-13.764c0-.834.349-1.186,1.168-1.2.537-.008,1.074,0,1.607,0a.975.975,0,0,1,1,.706c.146.387.282.77.424,1.168" transform="translate(-84.389 -20.929)" fill="#8cc540"/>
    <path id="Path_8" data-name="Path 8" d="M430.9,33.883V28.3c0-.109-.008-.222,0-.33.011-.191-.086-.248-.259-.244-.252.008-.5.011-.758.008-.6-.011-.834-.237-.852-.826-.008-.237-.008-.473.008-.71.026-.477.2-.646.668-.668.222-.011.443,0,.661,0,.526,0,.526,0,.529-.511,0-.8,0-1.607.015-2.41a4.221,4.221,0,0,1,.383-1.742,3.892,3.892,0,0,1,3.529-2.373c.634-.034.815.15.83.792.008.315.011.631,0,.946-.015.439-.12.552-.541.638l-.233.045a1.777,1.777,0,0,0-1.494,1.611c-.053.912-.019,1.828-.03,2.741,0,.222.128.263.3.263.364,0,.725,0,1.089,0a3.184,3.184,0,0,1,.424.015.456.456,0,0,1,.469.488,10.517,10.517,0,0,1,0,1.089.568.568,0,0,1-.638.6c-.394.015-.788,0-1.183.008-.454,0-.458,0-.462.473V39.279c0,.984-.143,1.13-1.111,1.134-.267,0-.537.011-.8-.015a.526.526,0,0,1-.537-.548,3.984,3.984,0,0,1-.008-.424c0-1.855,0-3.7,0-5.542" transform="translate(-267.947 -11.548)" fill="#8cc540"/>
    <path id="Path_9" data-name="Path 9" d="M263.6,35.238a1.247,1.247,0,0,0,.4-.39,3.618,3.618,0,0,1,2.865-1.318,6.685,6.685,0,0,1,2.989.567,5.683,5.683,0,0,1,1.333.886c.338.308.372.481.139.864-.2.323-.4.642-.62.95-.252.353-.36.364-.743.128-.293-.18-.582-.379-.894-.533a4.576,4.576,0,0,0-2.654-.507,3.193,3.193,0,0,0-2.726,2.583,7.213,7.213,0,0,0-.094,1.273v8.891c0,.207.008.409-.011.616-.03.375-.146.511-.529.529a12.833,12.833,0,0,1-1.37,0c-.409-.023-.544-.188-.552-.612-.011-.758,0-1.513,0-2.271V34.739c0-.9.1-1,1-1,.222,0,.443,0,.661,0,.623.008.788.169.8.781.011.222.008.439.008.721" transform="translate(-163.084 -20.941)" fill="#8cc540"/>
    <path id="Path_10" data-name="Path 10" d="M349.3,31.922v9.409c0,.909-.075.984-1,.987-.267,0-.537,0-.8,0-.5-.019-.646-.165-.665-.653,0-.094,0-.188,0-.285V22.607c0-.987.06-1.048,1.044-1.051.252,0,.5-.008.755,0,.469.023.653.21.676.668.008.143,0,.285,0,.424q-.011,4.641-.008,9.27" transform="translate(-216.609 -13.461)" fill="#8cc540"/>
    <path id="Path_11" data-name="Path 11" d="M366.779,42.174v7.044c0,.864-.075.935-.95.935-.267,0-.537,0-.8,0-.552-.019-.683-.154-.7-.717,0-.094,0-.188,0-.285V35.154c0-.969.079-1.048,1.047-1.048.285,0,.571-.011.849.015.383.038.518.2.548.582.011.158.007.315.007.473Z" transform="translate(-227.538 -21.299)" fill="#8cc540"/>
    <path id="Path_12" data-name="Path 12" d="M1.649,0a2.018,2.018,0,0,1,.109.248A7.165,7.165,0,0,0,3.624,3.221Q5.4,4.99,7.191,6.747A15.455,15.455,0,0,1,9.226,9.108a5.793,5.793,0,0,1,.942,2.1,4.1,4.1,0,0,1-.259,2.546.4.4,0,0,1-.143-.259,6.052,6.052,0,0,0-1.168-2.3A21.734,21.734,0,0,0,6.455,8.861c-.927-.9-1.877-1.776-2.76-2.726a12.008,12.008,0,0,1-1.66-2.178A4.77,4.77,0,0,1,1.33,1.3,2.933,2.933,0,0,1,1.649,0" transform="translate(-0.827 0)" fill="#8cc540"/>
    <path id="Path_13" data-name="Path 13" d="M365.55,23.667c-.218,0-.439.011-.657,0-.372-.023-.522-.15-.541-.514a13.614,13.614,0,0,1,0-1.412.482.482,0,0,1,.514-.5c.454-.019.909-.023,1.363,0,.36.015.529.206.544.578q.023.659,0,1.318c-.011.36-.161.507-.522.533-.233.015-.469,0-.706,0" transform="translate(-227.545 -13.252)" fill="#8cc540"/>
  </g>
</svg>
