<svg xmlns="http://www.w3.org/2000/svg" xmlns:xlink="http://www.w3.org/1999/xlink" width="187.922" height="39.435" viewBox="0 0 187.922 39.435">
  <defs>
    <clipPath id="clip-path">
      <rect id="Rectangle_2" data-name="Rectangle 2" width="187.922" height="39.435" fill="#fff"/>
    </clipPath>
  </defs>
  <g id="Group_3579" data-name="Group 3579" transform="translate(0 0)">
    <g id="Group_1" data-name="Group 1" transform="translate(0 0)" clip-path="url(#clip-path)">
      <path id="Path_1" data-name="Path 1" d="M.244,15.581a2.949,2.949,0,0,1,.168.278A7.4,7.4,0,0,0,2.7,18.728q1.483,1.2,2.966,2.4a11.917,11.917,0,0,1,1.245,1.148,5.085,5.085,0,0,1,1.43,2.734,5.391,5.391,0,0,0,.475-.989c.063-.139-.025-.273-.08-.4a7,7,0,0,0-1.06-1.7A18.192,18.192,0,0,0,5.8,19.981c-.9-.825-1.8-1.636-2.705-2.461A12.042,12.042,0,0,1,.959,15.034a4.754,4.754,0,0,1-.812-2.8A2.578,2.578,0,0,1,.463,10.97.335.335,0,0,1,.6,11.2,6.515,6.515,0,0,0,1.91,13.423a25.386,25.386,0,0,0,2.777,2.688c.749.648,1.5,1.287,2.2,1.994.345.353.686.715,1.01,1.09a5.809,5.809,0,0,1,1.59,3.732,7.01,7.01,0,0,1,6.024-2.789,6.942,6.942,0,0,1,5.869,2.974A6.686,6.686,0,0,1,25.2,20.633a6.259,6.259,0,0,1,7.509,3.786,9.648,9.648,0,0,1,.682,3.622c.021,3.164.008,6.323.008,9.487a2.561,2.561,0,0,1-.042.475.727.727,0,0,1-.791.694q-1.855.019-3.71-.008c-.526-.008-.724-.206-.749-.753-.029-.707-.025-1.414-.025-2.12q0-3.553,0-7.1a4.028,4.028,0,0,0-.269-1.607,2.591,2.591,0,0,0-1.026-1.245,1.941,1.941,0,0,0-3,1.144,6.592,6.592,0,0,0-.2,1.838q-.006,4.215-.008,8.426a5.347,5.347,0,0,1-.034.686.609.609,0,0,1-.576.589c-.21.021-.421.046-.631.05q-1.565.006-3.126,0a1.914,1.914,0,0,1-.576-.067.755.755,0,0,1-.585-.673,5.351,5.351,0,0,1-.029-.635c-.008-2.915-.021-5.831.042-8.746a5.081,5.081,0,0,0-.2-1.725,3.231,3.231,0,0,0-.3-.673,1.379,1.379,0,0,0-1.384-.694,2.685,2.685,0,0,0-2.617,2.621c-.025.316-.017.635-.021.955q-.006,4.215,0,8.426c0,1.018-.147,1.186-1.144,1.2-1.094.017-2.192.013-3.286.013a1.828,1.828,0,0,1-.522-.063.76.76,0,0,1-.585-.673,4.584,4.584,0,0,1-.025-.635c0-3.374.017-6.748.013-10.122a2.858,2.858,0,0,0-.488-1.435A8.078,8.078,0,0,0,6,23.906c-.715-.656-1.493-1.241-2.251-1.851a23.2,23.2,0,0,1-2.179-1.931A5.978,5.978,0,0,1,.311,18.307a3.49,3.49,0,0,1-.067-2.726" transform="translate(0 -6.355)" fill="#fff"/>
      <path id="Path_2" data-name="Path 2" d="M96.751,44.188H91.93c-.122,0-.248,0-.37,0-.358.017-.391.059-.3.421a3.161,3.161,0,0,0,.909,1.586,4.074,4.074,0,0,0,3.054,1.106A5.867,5.867,0,0,0,98.838,46a2.614,2.614,0,0,1,.3-.215.585.585,0,0,1,.778.046,16.984,16.984,0,0,1,1.973,2.141c.328.438.248.833-.21,1.266a9.287,9.287,0,0,1-15.57-4.9A9.011,9.011,0,0,1,92.548,33.57a8.776,8.776,0,0,1,10.976,9.293,4.571,4.571,0,0,1-.076.471.819.819,0,0,1-.778.74,9.123,9.123,0,0,1-1.477.122c-1.485,0-2.966,0-4.451,0ZM91.48,40.116c1.321.1,6.491.055,6.87-.059A3.693,3.693,0,0,0,94.614,37.6a3.8,3.8,0,0,0-3.134,2.512" transform="translate(-49.764 -19.246)" fill="#fff"/>
      <path id="Path_3" data-name="Path 3" d="M218.712,46.077a1.494,1.494,0,0,0,.265-.6q1.8-5.206,3.593-10.412c.282-.82.433-.926,1.308-.93,1.115,0,2.225-.008,3.34,0,1.064.013,1.334.412.934,1.405q-2.48,6.2-4.968,12.385c-1.4,3.492-2.81,6.975-4.131,10.5a.994.994,0,0,1-1.115.778c-.989,0-1.977,0-2.97,0-1.064,0-1.451-.543-1.073-1.531.652-1.7,1.3-3.4,1.965-5.086a1.363,1.363,0,0,0-.021-1.111q-3.193-7.793-6.357-15.595a5.368,5.368,0,0,1-.227-.593.818.818,0,0,1,.707-1.123,2.557,2.557,0,0,1,.475-.034c1.043,0,2.087-.008,3.126,0,.719,0,.921.143,1.17.837q1.275,3.591,2.541,7.19c.387,1.1.77,2.2,1.157,3.3a2.219,2.219,0,0,0,.282.618" transform="translate(-121.196 -19.771)" fill="#fff"/>
      <path id="Path_4" data-name="Path 4" d="M180.534,52.106A9.312,9.312,0,1,1,185.743,35.1a1.111,1.111,0,0,1,.416,1.712c-.387.673-.778,1.346-1.182,2.007a1.04,1.04,0,0,1-1.683.416,5.955,5.955,0,0,0-2.246-.892,3.747,3.747,0,0,0-3.883,1.809,4.8,4.8,0,0,0-.122,5.036,3.84,3.84,0,0,0,4.48,1.838,6.612,6.612,0,0,0,1.489-.677,4,4,0,0,1,.513-.273.9.9,0,0,1,1.233.383q.8,1.186,1.565,2.394c.4.614.349.883-.252,1.334a9.74,9.74,0,0,1-3.925,1.767,8.505,8.505,0,0,1-1.611.156" transform="translate(-99.207 -19.394)" fill="#fff"/>
      <path id="Path_5" data-name="Path 5" d="M382.529,44.142a.522.522,0,0,0,0,.379,6.81,6.81,0,0,0,3.53,4.358,5.7,5.7,0,0,0,5.852-.261,11.625,11.625,0,0,0,1.191-.883c.517-.412.686-.4,1.085.109.265.332.522.669.766,1.014.315.442.286.648-.122.993a9.261,9.261,0,1,1,.543-13.63,8.39,8.39,0,0,1,2.482,5.368,12.741,12.741,0,0,1,.08,1.746c-.021.648-.181.808-.833.812-3.075,0-6.146,0-9.221,0h-4.821c-.172-.008-.349-.008-.534-.008m.008-2.756h12.179c.475,0,.488-.017.383-.475a5.491,5.491,0,0,0-1.712-2.92,6.649,6.649,0,0,0-4.914-1.708,6.444,6.444,0,0,0-5.885,4.628.681.681,0,0,0-.05.475" transform="translate(-219.819 -19.426)" fill="#fff"/>
      <path id="Path_6" data-name="Path 6" d="M296.983,44.158a.9.9,0,0,0,.067.53,6.609,6.609,0,0,0,5.461,4.787,5.389,5.389,0,0,0,3.837-.867c.4-.257.77-.56,1.148-.85.631-.484.732-.471,1.228.168.24.307.475.614.7.934.29.416.257.627-.118.955a9.3,9.3,0,1,1-7.572-16.2,9.334,9.334,0,0,1,6.458,1.3,8.262,8.262,0,0,1,4.085,6.58c.059.635.1,1.266.1,1.906,0,.543-.147.694-.677.719-.21.008-.425,0-.635,0H297.606a2.206,2.206,0,0,0-.623.034m12.646-2.81a5.3,5.3,0,0,0-1.464-3.058,6.541,6.541,0,0,0-5.1-2.028,6.421,6.421,0,0,0-6.007,4.67.48.48,0,0,0-.013.416Z" transform="translate(-170.267 -19.409)" fill="#fff"/>
      <path id="Path_7" data-name="Path 7" d="M139.828,35.908a1,1,0,0,0,.467-.366c.21-.215.417-.433.623-.652a4.423,4.423,0,0,1,4.11-1.313,6.249,6.249,0,0,1,2.188.761,14.617,14.617,0,0,1,1.624,1.094.856.856,0,0,1,.29,1.287c-.433.787-.883,1.569-1.359,2.335a1.115,1.115,0,0,1-1.729.316c-.2-.147-.383-.316-.585-.454a3.239,3.239,0,0,0-2.57-.526,3.159,3.159,0,0,0-2.335,2.705c-.013.248,0,.5,0,.74q0,4.215,0,8.426a3.75,3.75,0,0,1-.084.892.709.709,0,0,1-.61.576,2.558,2.558,0,0,1-.475.038c-1.026,0-2.049.008-3.075,0-.862-.008-1.178-.328-1.178-1.195q-.006-7.711-.008-15.422c0-.934.391-1.329,1.308-1.342.6-.008,1.2,0,1.8,0a1.092,1.092,0,0,1,1.123.791c.164.433.316.862.475,1.308" transform="translate(-78.276 -19.413)" fill="#fff"/>
      <path id="Path_8" data-name="Path 8" d="M431.127,35.738V29.487c0-.122-.008-.248,0-.37.013-.215-.1-.278-.29-.273-.282.008-.564.013-.85.008-.673-.013-.934-.265-.955-.926-.008-.265-.008-.53.008-.8.029-.534.219-.724.749-.749.248-.013.5,0,.74,0,.589,0,.589,0,.593-.572,0-.9,0-1.8.017-2.7a4.73,4.73,0,0,1,.429-1.952,4.361,4.361,0,0,1,3.955-2.659c.711-.038.913.168.93.888.008.353.013.707,0,1.06-.017.492-.135.618-.606.715l-.261.05a1.991,1.991,0,0,0-1.674,1.8c-.059,1.022-.021,2.049-.034,3.071,0,.248.143.294.337.294.408,0,.812,0,1.22,0a3.567,3.567,0,0,1,.475.017.511.511,0,0,1,.526.547,11.788,11.788,0,0,1,0,1.22.637.637,0,0,1-.715.677c-.442.017-.883,0-1.325.008-.509,0-.513,0-.517.53v12.4c0,1.1-.16,1.266-1.245,1.27-.3,0-.6.013-.9-.017a.589.589,0,0,1-.6-.614,4.477,4.477,0,0,1-.008-.475c0-2.078,0-4.144,0-6.209" transform="translate(-248.54 -10.711)" fill="#fff"/>
      <path id="Path_9" data-name="Path 9" d="M263.894,35.444a1.4,1.4,0,0,0,.45-.438,4.054,4.054,0,0,1,3.21-1.477,7.491,7.491,0,0,1,3.349.635,6.368,6.368,0,0,1,1.493.993c.379.345.417.538.156.968-.219.362-.45.719-.694,1.064-.282.4-.4.408-.833.143-.328-.2-.652-.425-1-.6a5.127,5.127,0,0,0-2.974-.568A3.577,3.577,0,0,0,264,39.062a8.077,8.077,0,0,0-.105,1.426V50.45c0,.231.008.459-.013.69-.034.421-.164.572-.593.593a14.38,14.38,0,0,1-1.535,0c-.459-.025-.61-.21-.618-.686-.013-.85,0-1.7,0-2.545V34.885c0-1.014.109-1.123,1.119-1.123.248,0,.5,0,.74,0,.7.008.883.189.9.875.013.248.008.492.008.808" transform="translate(-151.271 -19.424)" fill="#fff"/>
      <path id="Path_10" data-name="Path 10" d="M349.6,33.171V43.714c0,1.018-.084,1.1-1.123,1.106-.3,0-.6,0-.9,0-.56-.021-.724-.185-.745-.732,0-.105,0-.21,0-.32V22.734c0-1.106.067-1.174,1.169-1.178.282,0,.564-.008.846,0,.526.025.732.236.757.749.008.16,0,.32,0,.475q-.013,5.2-.008,10.387" transform="translate(-200.92 -12.486)" fill="#fff"/>
      <path id="Path_11" data-name="Path 11" d="M367.075,43.147v7.892c0,.968-.084,1.048-1.064,1.048-.3,0-.6,0-.9,0-.618-.021-.766-.172-.782-.8,0-.105,0-.21,0-.32V35.28c0-1.085.088-1.174,1.174-1.174.32,0,.639-.013.951.017.429.042.581.219.614.652.013.177.008.353.008.53Z" transform="translate(-211.058 -19.757)" fill="#fff"/>
      <path id="Path_12" data-name="Path 12" d="M1.688,0A2.261,2.261,0,0,1,1.81.278,8.028,8.028,0,0,0,3.9,3.61Q5.9,5.591,7.9,7.56a17.317,17.317,0,0,1,2.28,2.646,6.491,6.491,0,0,1,1.056,2.352,4.592,4.592,0,0,1-.29,2.852.443.443,0,0,1-.16-.29,6.782,6.782,0,0,0-1.308-2.579,24.353,24.353,0,0,0-2.4-2.612c-1.039-1.01-2.1-1.99-3.092-3.054a13.455,13.455,0,0,1-1.859-2.44,5.345,5.345,0,0,1-.791-2.978A3.286,3.286,0,0,1,1.688,0" transform="translate(-0.767 0)" fill="#fff"/>
      <path id="Path_13" data-name="Path 13" d="M365.7,23.962c-.244,0-.492.013-.736,0-.416-.025-.585-.168-.606-.576a15.261,15.261,0,0,1,0-1.582.54.54,0,0,1,.576-.564c.509-.021,1.018-.025,1.527,0,.4.017.593.231.61.648q.025.738,0,1.477c-.013.4-.181.568-.585.6-.261.017-.526,0-.791,0" transform="translate(-211.064 -12.292)" fill="#fff"/>
    </g>
  </g>
</svg>
