<svg id="Group_2177" data-name="Group 2177" xmlns="http://www.w3.org/2000/svg" xmlns:xlink="http://www.w3.org/1999/xlink" width="223.881" height="68.493" viewBox="0 0 223.881 68.493">
  <defs>
    <clipPath id="clip-path">
      <rect id="Rectangle_43" data-name="Rectangle 43" width="223.881" height="68.493" fill="none"/>
    </clipPath>
  </defs>
  <g id="Group_2176" data-name="Group 2176" clip-path="url(#clip-path)">
    <path id="Path_357" data-name="Path 357" d="M34.274,0A34.247,34.247,0,1,0,68.548,34.245,34.26,34.26,0,0,0,34.274,0m0,5.629A28.617,28.617,0,1,1,5.634,34.245,28.661,28.661,0,0,1,34.274,5.629" fill="#fff" fill-rule="evenodd"/>
    <path id="Path_358" data-name="Path 358" d="M30.112,48.8h19.47v5.905H36.857v4.133H48.364v5.593H36.857v8.685H30.112ZM62.168,60.474c2.26,0,3.616-1.112,3.616-2.884v-.069c0-1.945-1.426-2.919-3.65-2.919H57.684v5.871ZM50.94,48.8H62.446c3.721,0,6.293.973,7.927,2.606a7.59,7.59,0,0,1,2.155,5.662v.069a7.7,7.7,0,0,1-5.006,7.5l5.806,8.477H65.575l-4.9-7.365h-2.99v7.365H50.94Z" transform="translate(-16.073 -26.049)" fill="#fff" fill-rule="evenodd"/>
    <path id="Path_359" data-name="Path 359" d="M175.722,35.121h10.559V36.15h-9.445v6.14h8.481v1.029h-8.481V50.1h-1.114Zm12.745,8.753V35.121h1.114v8.645c0,3.532,1.906,5.565,5.076,5.565,3.041,0,4.991-1.842,4.991-5.458V35.121h1.113v8.624c0,4.3-2.505,6.591-6.147,6.591-3.6,0-6.146-2.267-6.146-6.463m15.447-8.753h1.049l10.345,13.033V35.121h1.07V50.1h-.835L204.985,36.792V50.1h-1.07Zm20.841,13.953c4.176,0,6.809-2.846,6.809-6.42v-.044c0-3.551-2.634-6.461-6.809-6.461h-3.878V49.074Zm-4.991-13.953h4.991c4.711,0,7.967,3.232,7.967,7.448v.041c0,4.216-3.255,7.49-7.967,7.49h-4.991Zm21.849,7.769c2.506,0,4.37-1.263,4.37-3.424v-.042c0-2.011-1.584-3.274-4.3-3.274h-5.119V42.89Zm-6.166-7.768h6.3a5.907,5.907,0,0,1,4.219,1.476A3.953,3.953,0,0,1,247.1,39.38v.044c0,2.5-1.864,3.937-4.39,4.279l4.947,6.4H246.24L241.464,43.9h-4.9v6.2h-1.113V35.122Zm24.568,9.78-3.941-8.667L252.112,44.9h7.9Zm-4.456-9.888h1.072l6.98,15.086h-1.22l-1.906-4.194H251.64L249.733,50.1h-1.156l6.981-15.086Zm10.3,15.086h1.114V35.121h-1.114Zm3.686-2.182.728-.835a7.287,7.287,0,0,0,5.376,2.225c2.249,0,3.79-1.262,3.79-2.975v-.043c0-1.583-.835-2.5-4.24-3.187-3.6-.727-5.055-1.948-5.055-4.215v-.044c0-2.225,2.035-3.938,4.82-3.938a7.481,7.481,0,0,1,5.139,1.819l-.706.877a6.456,6.456,0,0,0-4.477-1.69c-2.205,0-3.662,1.262-3.662,2.824v.044c0,1.583.813,2.547,4.368,3.274,3.47.7,4.928,1.946,4.928,4.128v.044c0,2.417-2.078,4.087-4.969,4.087a8.536,8.536,0,0,1-6.04-2.4M283.3,50.1h1.115V35.121H283.3Zm4.649-14.98H289l10.345,13.033V35.121h1.071V50.1h-.836L289.021,36.792V50.1H287.95Zm15.188,7.533v-.044a7.483,7.483,0,0,1,7.411-7.746,7.863,7.863,0,0,1,5.482,1.968l-.728.835a6.756,6.756,0,0,0-4.818-1.8c-3.643,0-6.19,3.082-6.19,6.7v.041c0,3.875,2.42,6.763,6.425,6.763a7.7,7.7,0,0,0,4.776-1.712v-4.3h-5.01V42.333h6.082V48.11a9.018,9.018,0,0,1-5.889,2.249c-4.733,0-7.54-3.489-7.54-7.7" transform="translate(-93.794 -18.61)" fill="#fff" fill-rule="evenodd"/>
    <path id="Path_360" data-name="Path 360" d="M182.712,83.432c1.8,0,2.833-.96,2.833-2.376v-.047c0-1.583-1.1-2.4-2.9-2.4h-3.673v4.823Zm-7.442-8.155h7.682a6.7,6.7,0,0,1,4.9,1.7,5.263,5.263,0,0,1,1.439,3.837v.049a5.214,5.214,0,0,1-3.6,5.2l4.105,6h-4.321l-3.6-5.373h-2.9v5.373h-3.7Zm16.147,0h12.674v3.286h-9v3.406h7.923v3.286h-7.923v3.524h9.123v3.286H191.417Zm14.13,8.443v-.048a8.621,8.621,0,0,1,8.809-8.681,9.227,9.227,0,0,1,6.6,2.3L218.632,80.1a6.2,6.2,0,0,0-4.393-1.7,5.044,5.044,0,0,0-4.825,5.229v.048A5.031,5.031,0,0,0,214.5,89a5.9,5.9,0,0,0,3.481-1.007v-2.4h-3.72V82.4h7.3v7.29a10.915,10.915,0,0,1-7.178,2.662c-5.233,0-8.835-3.669-8.835-8.634m18.091,1.15V75.277h3.7v9.5c0,2.734,1.369,4.149,3.625,4.149s3.625-1.366,3.625-4.031V75.277h3.7V84.75c0,5.084-2.857,7.58-7.371,7.58s-7.273-2.518-7.273-7.46m17.2-9.593h3.7V88.708h8.378v3.358H240.842Zm23.3,9.762-2.233-5.444-2.232,5.444Zm-3.889-9.883h3.409l7.2,16.91H267L265.463,88.3h-7.105l-1.536,3.766h-3.77ZM274,78.682h-5.112V75.276h13.923v3.405H277.7V92.065H274Zm22.967,5.038v-.048a5.1,5.1,0,0,0-5.089-5.278,5.023,5.023,0,0,0-5.041,5.229v.048a5.1,5.1,0,0,0,5.088,5.278,5.025,5.025,0,0,0,5.042-5.23m-14,0v-.048a8.935,8.935,0,0,1,17.861-.048v.048a8.935,8.935,0,0,1-17.861.048m27.38-.288c1.8,0,2.833-.96,2.833-2.376v-.047c0-1.583-1.1-2.4-2.905-2.4h-3.673v4.823Zm-7.441-8.155h7.682a6.7,6.7,0,0,1,4.9,1.7,5.266,5.266,0,0,1,1.441,3.837v.049a5.213,5.213,0,0,1-3.6,5.2l4.105,6h-4.321l-3.6-5.373h-2.9v5.373h-3.7Z" transform="translate(-93.553 -40.027)" fill="#fff" fill-rule="evenodd"/>
  </g>
</svg>
